<svg width="31" height="31" viewBox="0 0 31 31" fill="none" xmlns="http://www.w3.org/2000/svg">
<path d="M16.6794 5.13141C16.4992 4.95123 16.2548 4.85 16 4.85C15.7452 4.85 15.5008 4.95123 15.3206 5.13141C15.1404 5.3116 15.0392 5.55599 15.0392 5.81081V14.0392H6.81081C6.55599 14.0392 6.3116 14.1404 6.13141 14.3206C5.95123 14.5008 5.85 14.7452 5.85 15C5.85 15.2548 5.95123 15.4992 6.13141 15.6794C6.3116 15.8596 6.55599 15.9608 6.81081 15.9608H15.0392V24.1892C15.0392 24.444 15.1404 24.6884 15.3206 24.8686C15.5008 25.0488 15.7452 25.15 16 25.15C16.2548 25.15 16.4992 25.0488 16.6794 24.8686C16.8596 24.6884 16.9608 24.444 16.9608 24.1892V15.9608H25.1892C25.444 15.9608 25.6884 15.8596 25.8686 15.6794C26.0488 15.4992 26.15 15.2548 26.15 15C26.15 14.7452 26.0488 14.5008 25.8686 14.3206C25.6884 14.1404 25.444 14.0392 25.1892 14.0392H16.9608V5.81081C16.9608 5.55599 16.8596 5.3116 16.6794 5.13141Z" fill="#008540" stroke="#008540" stroke-width="0.3"/>
</svg>
