<svg width="19" height="13" viewBox="0 0 19 13" fill="none" xmlns="http://www.w3.org/2000/svg">
<path d="M7.5614 6.50003H1M11.6623 1.57898H1M11.6623 11.4211H1" stroke="#008540" stroke-width="1.78947" stroke-linecap="round" stroke-linejoin="round"/>
<path d="M15.111 9.12031V6.74287H17.4884C17.6715 6.74287 17.847 6.67015 17.9765 6.54071C18.1059 6.41126 18.1786 6.2357 18.1786 6.05264C18.1786 5.86958 18.1059 5.69402 17.9765 5.56458C17.847 5.43514 17.6715 5.36242 17.4884 5.36242H15.111V2.98497C15.111 2.80191 15.0382 2.62635 14.9088 2.49691L14.7823 2.62344L14.9088 2.49691C14.7794 2.36747 14.6038 2.29475 14.4207 2.29475C14.2377 2.29475 14.0621 2.36747 13.9327 2.49691C13.8032 2.62635 13.7305 2.80191 13.7305 2.98497V5.36242H11.3531C11.17 5.36242 10.9945 5.43514 10.865 5.56458C10.7356 5.69402 10.6628 5.86958 10.6628 6.05264C10.6628 6.2357 10.7356 6.41126 10.865 6.5407C10.9945 6.67015 11.17 6.74287 11.3531 6.74287H13.7305V9.12031C13.7305 9.30337 13.8032 9.47893 13.9327 9.60837C14.0621 9.73782 14.2377 9.81054 14.4207 9.81054C14.6038 9.81054 14.7794 9.73782 14.9088 9.60837C15.0382 9.47893 15.111 9.30337 15.111 9.12031Z" fill="#008540" stroke="#008540" stroke-width="0.357895"/>
</svg>
