<svg width="16" height="18" viewBox="0 0 16 18" fill="none" xmlns="http://www.w3.org/2000/svg">
<path d="M5 2C4.73478 2 4.48043 2.10536 4.29289 2.29289C4.10536 2.48043 4 2.73478 4 3C4 3.26522 4.10536 3.51957 4.29289 3.70711C4.48043 3.89464 4.73478 4 5 4C5.26522 4 5.51957 3.89464 5.70711 3.70711C5.89464 3.51957 6 3.26522 6 3C6 2.73478 5.89464 2.48043 5.70711 2.29289C5.51957 2.10536 5.26522 2 5 2ZM2.17 2C2.3766 1.41447 2.75974 0.907435 3.2666 0.548791C3.77346 0.190147 4.37909 -0.00244904 5 -0.00244904C5.62091 -0.00244904 6.22654 0.190147 6.7334 0.548791C7.24026 0.907435 7.6234 1.41447 7.83 2H15C15.2652 2 15.5196 2.10536 15.7071 2.29289C15.8946 2.48043 16 2.73478 16 3C16 3.26522 15.8946 3.51957 15.7071 3.70711C15.5196 3.89464 15.2652 4 15 4H7.83C7.6234 4.58553 7.24026 5.09257 6.7334 5.45121C6.22654 5.80986 5.62091 6.00245 5 6.00245C4.37909 6.00245 3.77346 5.80986 3.2666 5.45121C2.75974 5.09257 2.3766 4.58553 2.17 4H1C0.734784 4 0.48043 3.89464 0.292893 3.70711C0.105357 3.51957 0 3.26522 0 3C0 2.73478 0.105357 2.48043 0.292893 2.29289C0.48043 2.10536 0.734784 2 1 2H2.17ZM11 8C10.7348 8 10.4804 8.10536 10.2929 8.29289C10.1054 8.48043 10 8.73479 10 9C10 9.26522 10.1054 9.51957 10.2929 9.70711C10.4804 9.89464 10.7348 10 11 10C11.2652 10 11.5196 9.89464 11.7071 9.70711C11.8946 9.51957 12 9.26522 12 9C12 8.73479 11.8946 8.48043 11.7071 8.29289C11.5196 8.10536 11.2652 8 11 8ZM8.17 8C8.3766 7.41447 8.75974 6.90743 9.2666 6.54879C9.77346 6.19015 10.3791 5.99755 11 5.99755C11.6209 5.99755 12.2265 6.19015 12.7334 6.54879C13.2403 6.90743 13.6234 7.41447 13.83 8H15C15.2652 8 15.5196 8.10536 15.7071 8.29289C15.8946 8.48043 16 8.73479 16 9C16 9.26522 15.8946 9.51957 15.7071 9.70711C15.5196 9.89464 15.2652 10 15 10H13.83C13.6234 10.5855 13.2403 11.0926 12.7334 11.4512C12.2265 11.8099 11.6209 12.0025 11 12.0025C10.3791 12.0025 9.77346 11.8099 9.2666 11.4512C8.75974 11.0926 8.3766 10.5855 8.17 10H1C0.734784 10 0.48043 9.89464 0.292893 9.70711C0.105357 9.51957 0 9.26522 0 9C0 8.73479 0.105357 8.48043 0.292893 8.29289C0.48043 8.10536 0.734784 8 1 8H8.17ZM5 14C4.73478 14 4.48043 14.1054 4.29289 14.2929C4.10536 14.4804 4 14.7348 4 15C4 15.2652 4.10536 15.5196 4.29289 15.7071C4.48043 15.8946 4.73478 16 5 16C5.26522 16 5.51957 15.8946 5.70711 15.7071C5.89464 15.5196 6 15.2652 6 15C6 14.7348 5.89464 14.4804 5.70711 14.2929C5.51957 14.1054 5.26522 14 5 14ZM2.17 14C2.3766 13.4145 2.75974 12.9074 3.2666 12.5488C3.77346 12.1901 4.37909 11.9976 5 11.9976C5.62091 11.9976 6.22654 12.1901 6.7334 12.5488C7.24026 12.9074 7.6234 13.4145 7.83 14H15C15.2652 14 15.5196 14.1054 15.7071 14.2929C15.8946 14.4804 16 14.7348 16 15C16 15.2652 15.8946 15.5196 15.7071 15.7071C15.5196 15.8946 15.2652 16 15 16H7.83C7.6234 16.5855 7.24026 17.0926 6.7334 17.4512C6.22654 17.8099 5.62091 18.0025 5 18.0025C4.37909 18.0025 3.77346 17.8099 3.2666 17.4512C2.75974 17.0926 2.3766 16.5855 2.17 16H1C0.734784 16 0.48043 15.8946 0.292893 15.7071C0.105357 15.5196 0 15.2652 0 15C0 14.7348 0.105357 14.4804 0.292893 14.2929C0.48043 14.1054 0.734784 14 1 14H2.17Z" fill="#008540"/>
</svg>
