<svg width="28" height="25" viewBox="0 0 28 25" fill="none" xmlns="http://www.w3.org/2000/svg">
<path d="M15.6905 1.19739L27.2025 21.1361C27.378 21.4401 27.4704 21.785 27.4704 22.136C27.4704 22.4871 27.378 22.832 27.2025 23.136C27.027 23.4401 26.7745 23.6925 26.4705 23.8681C26.1664 24.0436 25.8216 24.136 25.4705 24.1361H2.44648C2.09541 24.136 1.75053 24.0436 1.4465 23.8681C1.14247 23.6925 0.89 23.4401 0.71447 23.136C0.538939 22.832 0.446531 22.4871 0.446533 22.136C0.446535 21.785 0.538948 21.4401 0.714482 21.1361L12.2265 1.19739C12.9958 -0.135946 14.9198 -0.135946 15.6905 1.19739ZM13.9585 3.53072L3.60115 21.4694H24.3158L13.9585 3.53072ZM13.9585 17.0001C14.3121 17.0001 14.6512 17.1405 14.9013 17.3906C15.1513 17.6406 15.2918 17.9798 15.2918 18.3334C15.2918 18.687 15.1513 19.0261 14.9013 19.2762C14.6512 19.5262 14.3121 19.6667 13.9585 19.6667C13.6049 19.6667 13.2657 19.5262 13.0157 19.2762C12.7656 19.0261 12.6251 18.687 12.6251 18.3334C12.6251 17.9798 12.7656 17.6406 13.0157 17.3906C13.2657 17.1405 13.6049 17.0001 13.9585 17.0001ZM13.9585 7.66672C14.3121 7.66672 14.6512 7.8072 14.9013 8.05725C15.1513 8.30729 15.2918 8.64643 15.2918 9.00006V14.3334C15.2918 14.687 15.1513 15.0261 14.9013 15.2762C14.6512 15.5262 14.3121 15.6667 13.9585 15.6667C13.6049 15.6667 13.2657 15.5262 13.0157 15.2762C12.7656 15.0261 12.6251 14.687 12.6251 14.3334V9.00006C12.6251 8.64643 12.7656 8.30729 13.0157 8.05725C13.2657 7.8072 13.6049 7.66672 13.9585 7.66672Z" fill="#C6C6C6"/>
</svg>
