<svg width="23" height="21" viewBox="0 0 23 21" fill="none" xmlns="http://www.w3.org/2000/svg">
<path d="M12.9741 1.60415L22.7719 18.2623C22.9213 18.5163 23 18.8044 23 19.0977C23 19.391 22.9214 19.6792 22.772 19.9332C22.6226 20.1872 22.4077 20.3981 22.1489 20.5448C21.8902 20.6915 21.5966 20.7687 21.2978 20.7687H1.70215C1.40336 20.7687 1.10983 20.6915 0.85107 20.5448C0.59231 20.3981 0.377434 20.1872 0.22804 19.9332C0.0786464 19.6792 -1.89766e-06 19.391 0 19.0977C1.89773e-06 18.8044 0.0786539 18.5163 0.228051 18.2623L10.0259 1.60415C10.6807 0.490187 12.3182 0.490187 12.9741 1.60415ZM11.5 3.55357L2.68489 18.5408H20.3151L11.5 3.55357ZM11.5 14.8068C11.801 14.8068 12.0896 14.9241 12.3024 15.133C12.5152 15.342 12.6348 15.6253 12.6348 15.9207C12.6348 16.2162 12.5152 16.4995 12.3024 16.7084C12.0896 16.9173 11.801 17.0347 11.5 17.0347C11.199 17.0347 10.9104 16.9173 10.6976 16.7084C10.4848 16.4995 10.3652 16.2162 10.3652 15.9207C10.3652 15.6253 10.4848 15.342 10.6976 15.133C10.9104 14.9241 11.199 14.8068 11.5 14.8068ZM11.5 7.00907C11.801 7.00907 12.0896 7.12643 12.3024 7.33534C12.5152 7.54425 12.6348 7.82759 12.6348 8.12303V12.5789C12.6348 12.8743 12.5152 13.1576 12.3024 13.3665C12.0896 13.5755 11.801 13.6928 11.5 13.6928C11.199 13.6928 10.9104 13.5755 10.6976 13.3665C10.4848 13.1576 10.3652 12.8743 10.3652 12.5789V8.12303C10.3652 7.82759 10.4848 7.54425 10.6976 7.33534C10.9104 7.12643 11.199 7.00907 11.5 7.00907Z" fill="#7E7E7E"/>
</svg>
