<svg width="18" height="18" viewBox="0 0 18 18" fill="none" xmlns="http://www.w3.org/2000/svg">
<path d="M9 6.75C7.7805 6.75 6.75 7.7805 6.75 9C6.75 10.2195 7.7805 11.25 9 11.25C10.2195 11.25 11.25 10.2195 11.25 9C11.25 7.7805 10.2195 6.75 9 6.75Z" fill="#008540"/>
<path d="M15 3.75H13.0605L11.0302 1.71975C10.9607 1.64997 10.8781 1.59463 10.7871 1.55691C10.6961 1.5192 10.5985 1.49986 10.5 1.5H7.5C7.40149 1.49986 7.30393 1.5192 7.21293 1.55691C7.12192 1.59463 7.03928 1.64997 6.96975 1.71975L4.9395 3.75H3C2.17275 3.75 1.5 4.42275 1.5 5.25V13.5C1.5 14.3273 2.17275 15 3 15H15C15.8273 15 16.5 14.3273 16.5 13.5V5.25C16.5 4.42275 15.8273 3.75 15 3.75ZM9 12.75C6.9675 12.75 5.25 11.0325 5.25 9C5.25 6.9675 6.9675 5.25 9 5.25C11.0325 5.25 12.75 6.9675 12.75 9C12.75 11.0325 11.0325 12.75 9 12.75Z" fill="#008540"/>
</svg>
