<svg width="28" height="20" viewBox="0 0 28 20" fill="none" xmlns="http://www.w3.org/2000/svg">
<path d="M22.9091 5L17.8182 10H21.6364C21.6364 14.1375 18.2127 17.5 14 17.5C12.7565 17.5042 11.5316 17.2034 10.4364 16.625L8.57818 18.45C10.1985 19.4628 12.0794 20.0005 14 20C19.6255 20 24.1818 15.525 24.1818 10H28L22.9091 5ZM6.36364 10C6.36364 5.8625 9.78727 2.5 14 2.5C15.2855 2.5 16.5073 2.8125 17.5636 3.375L19.4218 1.55C17.8015 0.537191 15.9206 -0.000524519 14 3.83929e-07C8.37455 3.83929e-07 3.81818 4.475 3.81818 10H0L5.09091 15L10.1818 10H6.36364Z" fill="#7E7E7E"/>
</svg>
