<svg width="24" height="24" viewBox="0 0 24 24" fill="none" xmlns="http://www.w3.org/2000/svg">
<path d="M12 0C9.62663 0 7.30655 0.703788 5.33316 2.02237C3.35977 3.34094 1.8217 5.21509 0.913451 7.4078C0.00519935 9.60051 -0.232441 12.0133 0.230582 14.3411C0.693605 16.6689 1.83649 18.8071 3.51472 20.4853C5.19295 22.1635 7.33115 23.3064 9.65892 23.7694C11.9867 24.2324 14.3995 23.9948 16.5922 23.0866C18.7849 22.1783 20.6591 20.6402 21.9776 18.6668C23.2962 16.6935 24 14.3734 24 12C24 8.8174 22.7357 5.76515 20.4853 3.51472C18.2348 1.26428 15.1826 0 12 0ZM21.9467 11H18.2667C17.8009 7.78801 16.4427 4.77132 14.3467 2.29333C16.357 2.78305 18.1666 3.88273 19.5273 5.44153C20.888 7.00034 21.7331 8.94193 21.9467 11ZM7.74667 13H16.2533C15.6375 16.1584 14.1662 19.0871 12 21.4667C9.83379 19.0871 8.36253 16.1584 7.74667 13ZM7.74667 11C8.36253 7.84159 9.83379 4.91291 12 2.53333C14.1662 4.91291 15.6375 7.84159 16.2533 11H7.74667ZM9.65334 2.29333C7.5573 4.77132 6.1991 7.78801 5.73334 11H2.05334C2.26695 8.94193 3.11205 7.00034 4.47272 5.44153C5.83339 3.88273 7.643 2.78305 9.65334 2.29333ZM2.05334 12.96H5.73334C6.1991 16.172 7.5573 19.1887 9.65334 21.6667C7.64888 21.1793 5.84352 20.0856 4.48344 18.5346C3.12335 16.9837 2.27475 15.0509 2.05334 13V12.96ZM14.3467 21.6667C16.4427 19.1887 17.8009 16.172 18.2667 12.96H21.9467C21.7409 15.0252 20.8993 16.9757 19.5381 18.5423C18.1768 20.109 16.3629 21.2146 14.3467 21.7067V21.6667Z" fill="#7E7E7E"/>
</svg>
