<svg width="17" height="17" viewBox="0 0 17 17" fill="none" xmlns="http://www.w3.org/2000/svg">
<path d="M1.82143 3.64381H0.607143C0.446119 3.64381 0.291689 3.57985 0.177828 3.466C0.0639666 3.35214 0 3.19772 0 3.03671C0 2.8757 0.0639666 2.72128 0.177828 2.60743C0.291689 2.49357 0.446119 2.42961 0.607143 2.42961H5.46429V0.607099C5.46429 0.446087 5.52825 0.291669 5.64211 0.177815C5.75598 0.0639621 5.9104 0 6.07143 0H10.9286C11.0896 0 11.244 0.0639621 11.3579 0.177815C11.4717 0.291669 11.5357 0.446087 11.5357 0.607099V2.42961H16.3929C16.5539 2.42961 16.7083 2.49357 16.8222 2.60743C16.936 2.72128 17 2.8757 17 3.03671C17 3.19772 16.936 3.35214 16.8222 3.466C16.7083 3.57985 16.5539 3.64381 16.3929 3.64381H15.1786V16.3929C15.1786 16.5539 15.1146 16.7083 15.0007 16.8222C14.8869 16.936 14.7325 17 14.5714 17H2.42857C2.26755 17 2.11312 16.936 1.99926 16.8222C1.8854 16.7083 1.82143 16.5539 1.82143 16.3929V3.64381ZM10.3214 2.42961V1.21541H6.67857V2.42961H10.3214ZM3.03571 15.7858H13.9643V3.64381H3.03571V15.7858ZM6.67857 13.3574C6.51755 13.3574 6.36312 13.2934 6.24926 13.1796C6.1354 13.0657 6.07143 12.9113 6.07143 12.7503V6.67931C6.07143 6.5183 6.1354 6.36388 6.24926 6.25002C6.36312 6.13617 6.51755 6.07221 6.67857 6.07221C6.8396 6.07221 6.99402 6.13617 7.10789 6.25002C7.22175 6.36388 7.28571 6.5183 7.28571 6.67931V12.7503C7.28571 12.9113 7.22175 13.0657 7.10789 13.1796C6.99402 13.2934 6.8396 13.3574 6.67857 13.3574ZM10.3214 13.3574C10.1604 13.3574 10.006 13.2934 9.89211 13.1796C9.77825 13.0657 9.71429 12.9113 9.71429 12.7503V6.67931C9.71429 6.5183 9.77825 6.36388 9.89211 6.25002C10.006 6.13617 10.1604 6.07221 10.3214 6.07221C10.4825 6.07221 10.6369 6.13617 10.7507 6.25002C10.8646 6.36388 10.9286 6.5183 10.9286 6.67931V12.7503C10.9286 12.9113 10.8646 13.0657 10.7507 13.1796C10.6369 13.2934 10.4825 13.3574 10.3214 13.3574Z" fill="#008540"/>
</svg>
