<svg width="18" height="23" viewBox="0 0 18 23" fill="none" xmlns="http://www.w3.org/2000/svg">
<path d="M2.595 22.1H15.405C16.3393 22.1 17.1 21.3392 17.1 20.404V6.5C17.1 6.16877 16.8312 5.9 16.5 5.9H12.1V1.5C12.1 1.16877 11.8312 0.9 11.5 0.9H2.595C1.66077 0.9 0.9 1.66077 0.9 2.595V20.404C0.9 21.3392 1.66073 22.1 2.595 22.1ZM2.1 2.595C2.1 2.32223 2.32223 2.1 2.595 2.1H10.9V6.5C10.9 6.83123 11.1688 7.1 11.5 7.1H15.9V20.404C15.9 20.677 15.6776 20.9 15.405 20.9H2.595C2.32234 20.9 2.1 20.6769 2.1 20.405V2.595Z" fill="#008540" stroke="#008540" stroke-width="0.2"/>
<path d="M16.0753 6.92471L16.0757 6.92507C16.193 7.04118 16.3465 7.1 16.5 7.1C16.6534 7.1 16.8072 7.04123 16.9237 6.92471C17.1578 6.69066 17.1578 6.31034 16.9237 6.07629L11.9237 1.07629C11.6897 0.842238 11.3093 0.842238 11.0753 1.07629C10.8412 1.31034 10.8412 1.69066 11.0753 1.92471L16.0753 6.92471Z" fill="#008540" stroke="#008540" stroke-width="0.2"/>
<path d="M5.875 10.482H12.125C12.4562 10.482 12.725 10.2132 12.725 9.882C12.725 9.55077 12.4562 9.282 12.125 9.282H5.875C5.54377 9.282 5.275 9.55077 5.275 9.882C5.275 10.2132 5.54377 10.482 5.875 10.482Z" fill="#008540" stroke="#008540" stroke-width="0.2"/>
<path d="M5.875 13.864H12.125C12.4562 13.864 12.725 13.5952 12.725 13.264C12.725 12.9328 12.4562 12.664 12.125 12.664H5.875C5.54377 12.664 5.275 12.9328 5.275 13.264C5.275 13.5952 5.54377 13.864 5.875 13.864Z" fill="#008540" stroke="#008540" stroke-width="0.2"/>
<path d="M5.875 17.245H12.125C12.4562 17.245 12.725 16.9762 12.725 16.645C12.725 16.3138 12.4562 16.045 12.125 16.045H5.875C5.54377 16.045 5.275 16.3138 5.275 16.645C5.275 16.9762 5.54377 17.245 5.875 17.245Z" fill="#008540" stroke="#008540" stroke-width="0.2"/>
</svg>
