<svg width="17" height="18" viewBox="0 0 17 18" fill="none" xmlns="http://www.w3.org/2000/svg">
<path fill-rule="evenodd" clip-rule="evenodd" d="M16.889 3.31443C16.974 3.44332 17.0118 3.59756 16.9962 3.75111C16.9805 3.90466 16.9124 4.04811 16.8032 4.15724L8.58701 12.3726C8.50295 12.4566 8.39808 12.5167 8.28313 12.5469L4.86096 13.4406C4.74784 13.4701 4.62897 13.4695 4.51615 13.4389C4.40333 13.4083 4.30048 13.3487 4.21781 13.266C4.13515 13.1833 4.07554 13.0805 4.04491 12.9677C4.01427 12.8548 4.01368 12.736 4.04318 12.6228L4.93693 9.20156C4.96302 9.09886 5.01224 9.00349 5.08083 8.92271L13.3275 0.681448C13.4531 0.55592 13.6235 0.485413 13.8011 0.485413C13.9788 0.485413 14.1491 0.55592 14.2748 0.681448L16.8032 3.20897C16.8353 3.24115 16.8641 3.27648 16.889 3.31443ZM15.3813 3.68266L13.8011 2.1034L6.18818 9.71636L5.62959 11.8551L7.76833 11.2965L15.3813 3.68266Z" fill="#008540"/>
<path d="M15.2679 13.8106C15.5122 11.7228 15.5902 9.61884 15.5011 7.51864C15.4992 7.46916 15.5075 7.41981 15.5255 7.37368C15.5435 7.32754 15.5708 7.28561 15.6057 7.25051L16.4852 6.37106C16.5092 6.34689 16.5397 6.33018 16.573 6.32293C16.6063 6.31568 16.641 6.3182 16.6729 6.33018C16.7048 6.34217 16.7326 6.36312 16.7528 6.39051C16.7731 6.41789 16.7851 6.45056 16.7873 6.48457C16.9528 8.97924 16.89 11.4838 16.5996 13.967C16.3886 15.7742 14.9372 17.1908 13.1381 17.3919C10.0147 17.7378 6.86275 17.7378 3.7394 17.3919C1.94118 17.1908 0.488837 15.7742 0.277912 13.967C-0.0926372 10.7991 -0.0926372 7.5987 0.277912 4.43073C0.488837 2.62357 1.94029 1.20698 3.7394 1.00588C6.10996 0.743015 8.49838 0.679336 10.8796 0.815514C10.9136 0.817961 10.9463 0.830123 10.9737 0.85056C11.0011 0.870996 11.022 0.898852 11.0341 0.930826C11.0461 0.962801 11.0487 0.997556 11.0416 1.03097C11.0345 1.06439 11.018 1.09508 10.994 1.11939L10.1065 2.00599C10.0717 2.04062 10.0302 2.06777 9.98458 2.08575C9.93893 2.10373 9.89007 2.11218 9.84103 2.11056C7.85401 2.04301 5.8647 2.11918 3.88866 2.33846C3.31124 2.40237 2.77223 2.65907 2.3587 3.06709C1.94516 3.47512 1.68125 4.01063 1.6096 4.58714C1.25125 7.6512 1.25125 10.7466 1.6096 13.8106C1.68125 14.3871 1.94516 14.9227 2.3587 15.3307C2.77223 15.7387 3.31124 15.9954 3.88866 16.0593C6.88719 16.3945 9.99029 16.3945 12.9897 16.0593C13.5671 15.9954 14.1061 15.7387 14.5197 15.3307C14.9332 14.9227 15.1962 14.3871 15.2679 13.8106Z" fill="#008540"/>
</svg>
