<svg width="22" height="23" viewBox="0 0 22 23" fill="none" xmlns="http://www.w3.org/2000/svg">
<path d="M5.95504 17.6949L1.87763 21.7723C1.18474 22.4652 0 21.9745 0 20.9946V3.39634C0 1.57398 1.47731 0.0966721 3.29967 0.0966721H18.6981C20.5205 0.0966721 21.9978 1.57398 21.9978 3.39634V14.3952C21.9978 16.2176 20.5205 17.6949 18.6981 17.6949H5.95504ZM4.72171 15.8173C4.92798 15.611 5.20774 15.4951 5.49945 15.4951H18.6981C19.3056 15.4951 19.798 15.0027 19.798 14.3952V3.39634C19.798 2.78889 19.3056 2.29645 18.6981 2.29645H3.29967C2.69222 2.29645 2.19978 2.78889 2.19978 3.39634V18.3392L4.72171 15.8173ZM6.59934 6.69601C5.99189 6.69601 5.49945 6.20357 5.49945 5.59612C5.49945 4.98867 5.99189 4.49623 6.59934 4.49623H15.3985C16.0059 4.49623 16.4983 4.98867 16.4983 5.59612C16.4983 6.20357 16.0059 6.69601 15.3985 6.69601H6.59934ZM6.59934 9.99568C5.99189 9.99568 5.49945 9.50324 5.49945 8.89579C5.49945 8.28834 5.99189 7.7959 6.59934 7.7959H15.3985C16.0059 7.7959 16.4983 8.28834 16.4983 8.89579C16.4983 9.50324 16.0059 9.99568 15.3985 9.99568H6.59934ZM6.59934 13.2953C5.99189 13.2953 5.49945 12.8029 5.49945 12.1955C5.49945 11.588 5.99189 11.0956 6.59934 11.0956H10.9989C11.6063 11.0956 12.0988 11.588 12.0988 12.1955C12.0988 12.8029 11.6063 13.2953 10.9989 13.2953H6.59934Z" fill="#7E7E7E"/>
</svg>
