<svg width="36" height="21" viewBox="0 0 36 21" fill="none" xmlns="http://www.w3.org/2000/svg">
<path d="M18.2158 13.7138H17.0015V17.3569H18.2158V13.7138Z" fill="white"/>
<path d="M9.71485 5.21326H8.50049V8.85635H9.71485V5.21326Z" fill="white"/>
<path d="M10.9297 2.42873V21H15.7871V2.42873L13.3584 0L10.9297 2.42873Z" fill="white"/>
<path d="M1.21436 5.21326H0V8.85635H1.21436V5.21326Z" fill="white"/>
<path d="M1.21436 13.7138H0V17.3569H1.21436V13.7138Z" fill="white"/>
<path d="M2.42871 2.42873V14.9282H3.64308C3.80411 14.9282 3.95855 14.9922 4.07242 15.106C4.18629 15.2199 4.25026 15.3743 4.25026 15.5354C4.25026 15.6964 4.18629 15.8508 4.07242 15.9647C3.95855 16.0786 3.80411 16.1425 3.64308 16.1425H2.42871V21H7.28617V2.42873L4.85744 0L2.42871 2.42873Z" fill="white"/>
<path d="M9.71485 13.7138H8.50049V17.3569H9.71485V13.7138Z" fill="white"/>
<path d="M26.7158 5.21326H25.5015V8.85635H26.7158V5.21326Z" fill="white"/>
<path d="M35.2163 13.7138H34.002V17.3569H35.2163V13.7138Z" fill="white"/>
<path d="M27.9302 2.42873V21H32.7876V7.64199H31.5733C31.4122 7.64199 31.2578 7.57802 31.1439 7.46416C31.0301 7.35029 30.9661 7.19585 30.9661 7.03481C30.9661 6.87378 31.0301 6.71934 31.1439 6.60547C31.2578 6.4916 31.4122 6.42763 31.5733 6.42763H32.7876V2.42873L30.3589 0L27.9302 2.42873Z" fill="white"/>
<path d="M35.2163 5.21326H34.002V8.85635H35.2163V5.21326Z" fill="white"/>
<path d="M26.7158 13.7138H25.5015V17.3569H26.7158V13.7138Z" fill="white"/>
<path d="M19.4297 2.42873V21H24.2871V2.42873L21.8584 0L19.4297 2.42873Z" fill="white"/>
<path d="M18.2158 5.21326H17.0015V8.85635H18.2158V5.21326Z" fill="white"/>
</svg>
