<svg width="33" height="20" viewBox="0 0 33 20" fill="none" xmlns="http://www.w3.org/2000/svg">
<path d="M17.1767 12.7909H16.0952V16.0355H17.1767V12.7909Z" fill="#7E7E7E"/>
<path d="M9.60594 5.22025H8.52441V8.46482H9.60594V5.22025Z" fill="#7E7E7E"/>
<path d="M10.6875 2.74031V19.2801H15.0136V2.74031L12.8506 0.577255L10.6875 2.74031Z" fill="#7E7E7E"/>
<path d="M2.03514 5.22025H0.953613V8.46482H2.03514V5.22025Z" fill="#7E7E7E"/>
<path d="M2.03514 12.7909H0.953613V16.0355H2.03514V12.7909Z" fill="#7E7E7E"/>
<path d="M3.1167 2.74031V13.8725H4.19823C4.34164 13.8725 4.47919 13.9294 4.5806 14.0308C4.68202 14.1323 4.73899 14.2698 4.73899 14.4132C4.73899 14.5566 4.68202 14.6942 4.5806 14.7956C4.47919 14.897 4.34164 14.954 4.19823 14.954H3.1167V19.2801H7.4428V2.74031L5.27975 0.577255L3.1167 2.74031Z" fill="#7E7E7E"/>
<path d="M9.60594 12.7909H8.52441V16.0355H9.60594V12.7909Z" fill="#7E7E7E"/>
<path d="M24.7471 5.22025H23.6655V8.46482H24.7471V5.22025Z" fill="#7E7E7E"/>
<path d="M32.3179 12.7909H31.2363V16.0355H32.3179V12.7909Z" fill="#7E7E7E"/>
<path d="M25.8286 2.74031V19.2801H30.1547V7.3833H29.0732C28.9298 7.3833 28.7922 7.32633 28.6908 7.22491C28.5894 7.1235 28.5324 6.98596 28.5324 6.84254C28.5324 6.69912 28.5894 6.56157 28.6908 6.46016C28.7922 6.35875 28.9298 6.30177 29.0732 6.30177H30.1547V2.74031L27.9917 0.577255L25.8286 2.74031Z" fill="#7E7E7E"/>
<path d="M32.3179 5.22025H31.2363V8.46482H32.3179V5.22025Z" fill="#7E7E7E"/>
<path d="M24.7471 12.7909H23.6655V16.0355H24.7471V12.7909Z" fill="#7E7E7E"/>
<path d="M18.2578 2.74031V19.2801H22.5839V2.74031L20.4209 0.577255L18.2578 2.74031Z" fill="#7E7E7E"/>
<path d="M17.1767 5.22025H16.0952V8.46482H17.1767V5.22025Z" fill="#7E7E7E"/>
</svg>
