<svg width="27" height="28" viewBox="0 0 27 28" fill="none" xmlns="http://www.w3.org/2000/svg">
<path d="M24.0164 11.3334C24.0164 10.9798 23.8759 10.6406 23.6259 10.3906C23.3758 10.1405 23.0367 10 22.6831 10C22.3294 10 21.9903 10.1405 21.7402 10.3906C21.4902 10.6406 21.3497 10.9798 21.3497 11.3334H24.0164ZM5.34972 11.3334C5.34972 10.9798 5.20924 10.6406 4.95919 10.3906C4.70914 10.1405 4.37001 10 4.01638 10C3.66276 10 3.32362 10.1405 3.07358 10.3906C2.82353 10.6406 2.68305 10.9798 2.68305 11.3334H5.34972ZM24.407 14.9427C24.6585 15.1856 24.9953 15.32 25.3449 15.3169C25.6945 15.3139 26.0289 15.1737 26.2761 14.9265C26.5234 14.6793 26.6636 14.3448 26.6666 13.9952C26.6697 13.6456 26.5353 13.3088 26.2924 13.0574L24.407 14.9427ZM13.3497 2.00004L14.2924 1.05737C14.0423 0.807413 13.7033 0.666992 13.3497 0.666992C12.9962 0.666992 12.6571 0.807413 12.4071 1.05737L13.3497 2.00004ZM0.407051 13.0574C0.279704 13.1804 0.178128 13.3275 0.108249 13.4902C0.0383705 13.6528 0.00158876 13.8278 5.03423e-05 14.0048C-0.00148808 14.1819 0.0322476 14.3575 0.0992887 14.5213C0.16633 14.6852 0.265334 14.834 0.390524 14.9592C0.515715 15.0844 0.664584 15.1834 0.828445 15.2505C0.992307 15.3175 1.16788 15.3512 1.34492 15.3497C1.52196 15.3482 1.69692 15.3114 1.85959 15.2415C2.02226 15.1716 2.16939 15.0701 2.29238 14.9427L0.407051 13.0574ZM6.68305 27.3334H20.0164V24.6667H6.68305V27.3334ZM24.0164 23.3334V11.3334H21.3497V23.3334H24.0164ZM5.34972 23.3334V11.3334H2.68305V23.3334H5.34972ZM26.2924 13.0574L14.2924 1.05737L12.4071 2.94271L24.407 14.9427L26.2924 13.0574ZM12.4071 1.05737L0.407051 13.0574L2.29238 14.9427L14.2924 2.94271L12.4071 1.05737ZM20.0164 27.3334C21.0772 27.3334 22.0947 26.9119 22.8448 26.1618C23.595 25.4117 24.0164 24.3942 24.0164 23.3334H21.3497C21.3497 23.687 21.2092 24.0261 20.9592 24.2762C20.7091 24.5262 20.37 24.6667 20.0164 24.6667V27.3334ZM6.68305 24.6667C6.32943 24.6667 5.99029 24.5262 5.74024 24.2762C5.49019 24.0261 5.34972 23.687 5.34972 23.3334H2.68305C2.68305 24.3942 3.10448 25.4117 3.85462 26.1618C4.60477 26.9119 5.62218 27.3334 6.68305 27.3334V24.6667Z" fill="#008540"/>
</svg>
