<svg width="33" height="33" viewBox="0 0 33 33" fill="none" xmlns="http://www.w3.org/2000/svg">
<path d="M27.4997 2.75H12.833V7.33333H14.6663V4.58333H27.4997C28.0497 4.58333 28.4163 4.95 28.4163 5.5V15.5833C28.4163 16.1333 28.0497 16.5 27.4997 16.5H15.583V22.9167H10.7247L7.33301 25.575V22.9167H4.58301C4.03301 22.9167 3.66634 22.55 3.66634 22V11.9167C3.66634 11.3667 4.03301 11 4.58301 11H16.4997V9.16667H4.58301C3.02467 9.16667 1.83301 10.3583 1.83301 11.9167V22C1.83301 23.5583 3.02467 24.75 4.58301 24.75H5.49967V29.425L11.2747 24.75H17.4163V18.3333H27.4997C29.058 18.3333 30.2497 17.1417 30.2497 15.5833V5.5C30.2497 3.94167 29.058 2.75 27.4997 2.75Z" fill="#7E7E7E"/>
<path d="M5.68359 20.9917H7.88359L8.43359 19.525H11.2753L11.8253 20.9917H14.0253L10.9086 12.8333H8.70859L5.68359 20.9917ZM9.80859 15.125L10.7253 17.9667H8.89193L9.80859 15.125Z" fill="#7E7E7E"/>
<path d="M18.333 15.5833C19.3413 15.5833 20.7163 15.3083 21.9997 14.6667C23.283 15.3083 24.7497 15.5833 25.6663 15.5833V13.75C25.6663 13.75 24.7497 13.75 23.7413 13.3833C24.8413 12.2833 25.6663 10.6333 25.6663 8.25V7.33333H22.9163V5.5H21.083V7.33333H18.333V9.16667H23.7413C23.558 10.8167 22.8247 11.825 21.9997 12.4667C21.4497 12.0083 20.8997 11.3667 20.533 10.5417H18.608C18.9747 11.7333 19.5247 12.65 20.258 13.3833C19.3413 13.75 18.5163 13.75 18.333 13.75V15.5833Z" fill="#7E7E7E"/>
</svg>
