<svg width="19" height="23" viewBox="0 0 19 23" fill="none" xmlns="http://www.w3.org/2000/svg">
<path d="M10.847 18.5678C11.3161 17.9201 11.8513 17.1399 12.409 16.2709C13.856 16.4853 15.0391 16.8593 15.8607 17.2979C16.2746 17.5188 16.5948 17.7551 16.8109 17.9939C17.0272 18.2329 17.1361 18.4708 17.1361 18.6965C17.1361 18.9969 16.9539 19.314 16.5975 19.6236C16.2419 19.9323 15.7193 20.2278 15.0547 20.4844C13.7259 20.9974 11.8386 21.3517 9.61156 21.3517C7.38457 21.3517 5.49725 20.9974 4.16844 20.4844C3.50383 20.2278 2.98118 19.9323 2.62561 19.6236C2.26919 19.314 2.08699 18.9969 2.08699 18.6965C2.08699 18.4649 2.1962 18.2241 2.41229 17.9843C2.62833 17.7445 2.94844 17.509 3.3623 17.2895C4.18385 16.8537 5.36699 16.4853 6.81407 16.2709C7.37187 17.14 7.90717 17.9203 8.37627 18.5681L8.37625 18.5681L8.37705 18.5691C8.67885 18.9638 9.12143 19.1974 9.61156 19.1974C10.1004 19.1974 10.5667 18.9647 10.847 18.5678ZM10.847 18.5678C10.847 18.5679 10.8469 18.568 10.8469 18.5681L10.8064 18.5387M10.847 18.5678C10.8471 18.5677 10.8472 18.5676 10.8472 18.5676L10.8064 18.5387M10.8064 18.5387C11.2798 17.885 11.8208 17.096 12.3844 16.2168L8.41676 18.5387C8.70983 18.922 9.13815 19.1474 9.61156 19.1474C10.085 19.1474 10.5358 18.922 10.8064 18.5387ZM16.8132 16.5327C15.9012 15.9424 14.6126 15.4836 13.0735 15.2107C13.8163 13.9749 14.5351 12.6202 15.0712 11.2729C15.6162 9.90333 15.9737 8.5384 15.9737 7.31214C15.9737 3.81285 13.1109 0.95 9.61156 0.95C6.11227 0.95 3.24942 3.81285 3.24942 7.31214C3.24942 8.5384 3.60688 9.90333 4.15188 11.2729C4.68803 12.6202 5.40685 13.9749 6.1496 15.2107C4.61057 15.4836 3.32196 15.9424 2.41273 16.5327C1.4901 17.1317 0.95 17.8721 0.95 18.6965C0.95 19.7993 1.90619 20.7471 3.45429 21.4166C5.00648 22.0879 7.1722 22.4887 9.6341 22.4887C12.096 22.4887 14.2561 22.0879 15.8027 21.4166C17.3453 20.747 18.2957 19.7992 18.2957 18.6965L18.2957 18.6958C18.2841 17.8717 17.7386 17.1316 16.8132 16.5327ZM9.61156 2.10954C12.492 2.10954 14.8367 4.4542 14.8367 7.33468C14.8367 9.05735 13.9854 11.1896 12.9433 13.1471C11.9025 15.1021 10.6758 16.8749 9.93265 17.877C9.77238 18.0764 9.45105 18.0765 9.29066 17.8772C8.55843 16.8633 7.33179 15.0907 6.28824 13.1386C5.24327 11.1838 4.38642 9.05726 4.38642 7.33468C4.38642 4.4542 6.73108 2.10954 9.61156 2.10954Z" fill="black" stroke="black" stroke-width="0.1"/>
<path d="M12.5694 7.31214C12.5694 5.68369 11.2392 4.37659 9.63384 4.37659C8.02819 4.37659 6.69829 5.70649 6.69829 7.31214C6.69829 8.94059 8.02845 10.2477 9.63384 10.2477C11.2395 10.2477 12.5694 8.91779 12.5694 7.31214ZM7.81274 7.31214C7.81274 6.3253 8.62446 5.51358 9.6113 5.51358C10.5981 5.51358 11.4099 6.3253 11.4099 7.31214C11.4099 8.29898 10.5981 9.11069 9.6113 9.11069C8.62446 9.11069 7.81274 8.29898 7.81274 7.31214Z" fill="black" stroke="black" stroke-width="0.1"/>
</svg>
