<svg width="24" height="24" viewBox="0 0 24 24" fill="none" xmlns="http://www.w3.org/2000/svg">
<path d="M12.35 12.15V12.2354L12.4234 12.279L15.8137 14.292L15.1983 15.315L11.15 12.9146V8.15H12.35V12.15ZM20.8487 12.15C20.82 13.848 20.3032 15.503 19.3585 16.9168C18.3861 18.3722 17.0039 19.5065 15.3868 20.1763C13.7696 20.8462 11.9902 21.0214 10.2735 20.68C8.55672 20.3385 6.9798 19.4956 5.74211 18.2579C4.50441 17.0202 3.66153 15.4433 3.32005 13.7266C2.97858 12.0098 3.15383 10.2304 3.82367 8.61326C4.49351 6.99613 5.62783 5.61395 7.08321 4.6415C8.53858 3.66905 10.2496 3.15 12 3.15L12.0003 3.15C13.1625 3.14763 14.3136 3.37583 15.387 3.82138C16.4604 4.26694 17.4347 4.921 18.2536 5.74569L18.3596 5.85251L18.4661 5.74607L20.85 3.36213V9.85H14.3621L17.0561 7.15607L17.1626 7.04958L17.0557 6.94352C15.7591 5.65722 13.9718 4.85 12 4.85C8.05716 4.85 4.85 8.05716 4.85 12C4.85 15.9428 8.05716 19.15 12 19.15C15.8927 19.15 19.0683 16.0239 19.1485 12.15H20.8487Z" fill="black" stroke="white" stroke-width="0.3"/>
</svg>
