<svg width="23" height="23" viewBox="0 0 23 23" fill="none" xmlns="http://www.w3.org/2000/svg">
<path d="M22.0417 0H6.70833C6.45417 0 6.21041 0.100967 6.03069 0.28069C5.85097 0.460412 5.75 0.704167 5.75 0.958333V5.75H0.958333C0.704167 5.75 0.460412 5.85097 0.28069 6.03069C0.100967 6.21041 0 6.45417 0 6.70833V22.0417C0 22.2958 0.100967 22.5396 0.28069 22.7193C0.460412 22.899 0.704167 23 0.958333 23H16.2917C16.5458 23 16.7896 22.899 16.9693 22.7193C17.149 22.5396 17.25 22.2958 17.25 22.0417V17.25H22.0417C22.2958 17.25 22.5396 17.149 22.7193 16.9693C22.899 16.7896 23 16.5458 23 16.2917V0.958333C23 0.704167 22.899 0.460412 22.7193 0.28069C22.5396 0.100967 22.2958 0 22.0417 0ZM21.0833 15.3333H17.25V6.70833C17.25 6.45417 17.149 6.21041 16.9693 6.03069C16.7896 5.85097 16.5458 5.75 16.2917 5.75H7.66667V1.91667H21.0833V15.3333Z" fill="#008540"/>
</svg>
