<svg width="24" height="20" viewBox="0 0 24 20" fill="none" xmlns="http://www.w3.org/2000/svg">
<path d="M1.11612 17.1161C0.881696 17.3505 0.75 17.6685 0.75 18C0.75 18.3315 0.881696 18.6495 1.11612 18.8839C1.35054 19.1183 1.66848 19.25 2 19.25H22C22.3315 19.25 22.6495 19.1183 22.8839 18.8839C23.1183 18.6495 23.25 18.3315 23.25 18C23.25 17.6685 23.1183 17.3505 22.8839 17.1161C22.6495 16.8817 22.3315 16.75 22 16.75H2C1.66848 16.75 1.35054 16.8817 1.11612 17.1161ZM1.11612 9.11612C0.881696 9.35054 0.75 9.66848 0.75 10C0.75 10.3315 0.881696 10.6495 1.11612 10.8839C1.35054 11.1183 1.66848 11.25 2 11.25H22C22.3315 11.25 22.6495 11.1183 22.8839 10.8839C23.1183 10.6495 23.25 10.3315 23.25 10C23.25 9.66848 23.1183 9.35054 22.8839 9.11612C22.6495 8.8817 22.3315 8.75 22 8.75H2C1.66848 8.75 1.35054 8.8817 1.11612 9.11612ZM1.11612 1.11612C0.881696 1.35054 0.75 1.66848 0.75 2C0.75 2.33152 0.881696 2.64946 1.11612 2.88388C1.35054 3.1183 1.66848 3.25 2 3.25H22C22.3315 3.25 22.6495 3.1183 22.8839 2.88388C23.1183 2.64946 23.25 2.33152 23.25 2C23.25 1.66848 23.1183 1.35054 22.8839 1.11612C22.6495 0.881696 22.3315 0.75 22 0.75H2C1.66848 0.75 1.35054 0.881696 1.11612 1.11612Z" fill="#C6C6C6" stroke="#C6C6C6" stroke-width="0.5"/>
</svg>
