<svg width="25" height="25" viewBox="0 0 25 25" fill="none" xmlns="http://www.w3.org/2000/svg">
<path d="M12.5 7.95455C9.98864 7.95455 7.95455 9.98864 7.95455 12.5C7.95455 15.0114 9.98864 17.0455 12.5 17.0455C15.0114 17.0455 17.0455 15.0114 17.0455 12.5C17.0455 9.98864 15.0114 7.95455 12.5 7.95455ZM22.6591 11.3636C22.4017 9.05923 21.3684 6.91084 19.7288 5.27124C18.0892 3.63165 15.9408 2.59831 13.6364 2.34091V1.13636C13.6364 0.511364 13.125 0 12.5 0C11.875 0 11.3636 0.511364 11.3636 1.13636V2.34091C9.05923 2.59831 6.91084 3.63165 5.27124 5.27124C3.63165 6.91084 2.59831 9.05923 2.34091 11.3636H1.13636C0.511364 11.3636 0 11.875 0 12.5C0 13.125 0.511364 13.6364 1.13636 13.6364H2.34091C2.59831 15.9408 3.63165 18.0892 5.27124 19.7288C6.91084 21.3684 9.05923 22.4017 11.3636 22.6591V23.8636C11.3636 24.4886 11.875 25 12.5 25C13.125 25 13.6364 24.4886 13.6364 23.8636V22.6591C15.9408 22.4017 18.0892 21.3684 19.7288 19.7288C21.3684 18.0892 22.4017 15.9408 22.6591 13.6364H23.8636C24.4886 13.6364 25 13.125 25 12.5C25 11.875 24.4886 11.3636 23.8636 11.3636H22.6591ZM12.5 20.4545C8.10227 20.4545 4.54545 16.8977 4.54545 12.5C4.54545 8.10227 8.10227 4.54545 12.5 4.54545C16.8977 4.54545 20.4545 8.10227 20.4545 12.5C20.4545 16.8977 16.8977 20.4545 12.5 20.4545Z" fill="#008540"/>
</svg>
