<svg width="25" height="25" viewBox="0 0 25 25" fill="none" xmlns="http://www.w3.org/2000/svg">
<path d="M0.9 12.375C0.9 18.9784 6.27156 24.35 12.875 24.35C19.4784 24.35 24.85 18.9784 24.85 12.375C24.85 5.77156 19.4784 0.4 12.875 0.4C6.27156 0.4 0.9 5.77156 0.9 12.375ZM2.79643 12.375C2.79643 6.81505 7.31505 2.29643 12.875 2.29643C18.4349 2.29643 22.9536 6.81505 22.9536 12.375C22.9536 17.9349 18.4349 22.4536 12.875 22.4536C7.31505 22.4536 2.79643 17.9349 2.79643 12.375Z" fill="#7E7E7E" stroke="#7E7E7E" stroke-width="0.2"/>
<path d="M16.2681 16.7161L16.2685 16.7161C16.4755 16.7151 16.6765 16.6467 16.8411 16.5212C17.0057 16.3957 17.1248 16.22 17.1806 16.0207C17.2363 15.8214 17.2255 15.6093 17.1499 15.4167C17.0742 15.224 16.9378 15.0613 16.7614 14.9531L16.7604 14.9525L12.9752 12.6915V6.4375C12.9752 5.90727 12.5572 5.48929 12.027 5.48929C11.4968 5.48929 11.0788 5.90727 11.0788 6.4375V13.2227C11.077 13.3864 11.118 13.5479 11.1979 13.6909C11.2778 13.8341 11.3938 13.9539 11.5344 14.0384L11.5345 14.0384L15.7748 16.5826C15.9293 16.6789 16.1009 16.7161 16.2681 16.7161Z" fill="#7E7E7E" stroke="#7E7E7E" stroke-width="0.2"/>
</svg>
