<svg width="29" height="28" viewBox="0 0 29 28" fill="none" xmlns="http://www.w3.org/2000/svg">
<mask id="path-1-outside-1_83_902" maskUnits="userSpaceOnUse" x="0" y="-0.575325" width="29" height="29" fill="black">
<rect fill="white" y="-0.575325" width="29" height="29"/>
<path d="M27.3308 11.9669C27.5995 11.739 27.79 11.4325 27.8754 11.0907C27.9609 10.7489 27.937 10.3889 27.8072 10.0614L26.7615 7.44712C26.6242 7.12341 26.389 6.85077 26.089 6.66741C25.789 6.48405 25.4391 6.39917 25.0884 6.42466L23.4036 6.52923C22.996 6.04047 22.5491 5.58582 22.0675 5.16981L22.2069 3.47345C22.2374 3.11895 22.1549 2.76388 21.9713 2.45914C21.7876 2.15441 21.5121 1.91564 21.1844 1.77709L18.5934 0.615194C18.269 0.477312 17.9096 0.444631 17.5657 0.521751C17.2218 0.59887 16.9107 0.781908 16.6763 1.04509L15.5144 2.31156C14.8803 2.25886 14.2429 2.25886 13.6089 2.31156L12.5167 1.02186C12.2898 0.751717 11.9834 0.560186 11.6412 0.474631C11.299 0.389076 10.9385 0.413873 10.6112 0.54548L7.99693 1.59118C7.66764 1.72073 7.38789 1.95135 7.19791 2.24989C7.00793 2.54843 6.9175 2.89952 6.93961 3.25269L7.04418 4.93743C6.55521 5.34484 6.10054 5.79174 5.68476 6.27361L3.9884 6.13418C3.63659 6.10166 3.28357 6.18213 2.98061 6.3639C2.67765 6.54568 2.44052 6.8193 2.30366 7.14503L1.14176 9.73605C1.00388 10.0604 0.971202 10.4199 1.04832 10.7638C1.12544 11.1077 1.30848 11.4187 1.57166 11.6532L2.83813 12.8151C2.78543 13.4491 2.78543 14.0865 2.83813 14.7206L1.5949 15.8011C1.32622 16.029 1.13576 16.3355 1.0503 16.6773C0.96485 17.0191 0.98871 17.3791 1.11853 17.7066L2.18747 20.3674C2.31702 20.6967 2.54764 20.9764 2.84618 21.1664C3.14472 21.3564 3.4958 21.4468 3.84897 21.4247L5.53372 21.3201C5.9402 21.8135 6.38714 22.2721 6.86989 22.6912L6.73047 24.3875C6.70156 24.7388 6.78354 25.0903 6.96488 25.3925C7.14621 25.6947 7.41777 25.9325 7.74131 26.0723L10.3323 27.2342C10.6567 27.372 11.0161 27.4047 11.3601 27.3276C11.704 27.2505 12.015 27.0674 12.2495 26.8043L13.4114 25.5378C14.0454 25.5911 14.6828 25.5911 15.3169 25.5378L16.409 26.8275C16.6359 27.0976 16.9423 27.2892 17.2845 27.3747C17.6267 27.4603 17.9873 27.4355 18.3145 27.3039L20.9288 26.2582C21.2581 26.1286 21.5378 25.898 21.7278 25.5995C21.9178 25.3009 22.0082 24.9498 21.9861 24.5967L21.8815 22.9119C22.3647 22.4891 22.8117 22.0266 23.2177 21.5293L24.9141 21.6687C25.2659 21.7012 25.6189 21.6207 25.9219 21.439C26.2248 21.2572 26.462 20.9836 26.5988 20.6578L27.7607 18.0668C27.8986 17.7425 27.9313 17.383 27.8542 17.0391C27.7771 16.6952 27.594 16.3841 27.3308 16.1497L26.0644 14.9878C26.1165 14.3537 26.1165 13.7164 26.0644 13.0823L27.3541 11.9901L27.3308 11.9669ZM26.5756 11.0722L25.0535 12.3619C24.9828 12.4232 24.9279 12.5005 24.8935 12.5875C24.8591 12.6745 24.8463 12.7685 24.856 12.8615C24.9381 13.6145 24.9381 14.3742 24.856 15.1272C24.8449 15.2193 24.8559 15.3127 24.8883 15.3996C24.9206 15.4865 24.9733 15.5645 25.0419 15.6268L26.5407 16.9514C26.6229 17.0233 26.6806 17.119 26.7056 17.2253C26.7306 17.3316 26.7217 17.443 26.6802 17.544L25.5183 20.135C25.4749 20.2354 25.4011 20.3197 25.3073 20.376C25.2135 20.4322 25.1044 20.4577 24.9954 20.4487L23.0086 20.286C22.9147 20.2787 22.8204 20.2938 22.7335 20.3302C22.6466 20.3666 22.5696 20.4231 22.509 20.4952C22.0309 21.0836 21.4893 21.6175 20.8939 22.087C20.8207 22.1446 20.7624 22.2191 20.724 22.304C20.6855 22.3889 20.6681 22.4819 20.6732 22.575L20.7894 24.5618C20.7949 24.6702 20.7666 24.7777 20.7083 24.8694C20.65 24.961 20.5646 25.0322 20.464 25.073L17.8614 26.1768C17.7593 26.217 17.6471 26.2241 17.5407 26.197C17.4344 26.1699 17.3393 26.11 17.2688 26.0258L15.9791 24.5037C15.9251 24.4389 15.8577 24.3866 15.7814 24.3505C15.7052 24.3144 15.622 24.2953 15.5376 24.2946C14.7847 24.3774 14.0249 24.3774 13.2719 24.2946C13.1798 24.2824 13.0861 24.293 12.999 24.3254C12.9119 24.3578 12.8341 24.4111 12.7723 24.4805L11.4478 25.9793C11.3759 26.0615 11.2801 26.1191 11.1739 26.1442C11.0676 26.1692 10.9562 26.1603 10.8552 26.1187L8.26417 24.9568C8.16376 24.9135 8.07948 24.8397 8.0232 24.7459C7.96693 24.6521 7.94148 24.543 7.95046 24.434L8.11312 22.4472C8.12146 22.3532 8.10678 22.2585 8.07034 22.1715C8.0339 22.0844 7.9768 22.0076 7.90398 21.9475C7.2939 21.4833 6.73671 20.9534 6.24247 20.3674C6.18694 20.2918 6.11287 20.2317 6.0274 20.1931C5.94193 20.1544 5.84793 20.1384 5.75448 20.1466L3.76764 20.2628C3.65983 20.2651 3.55374 20.2354 3.46276 20.1775C3.37178 20.1197 3.29998 20.0361 3.25641 19.9375L2.21071 17.3232C2.1705 17.2211 2.16346 17.1089 2.19057 17.0025C2.21768 16.8962 2.27757 16.8011 2.36175 16.7306L3.91869 15.4061C3.9894 15.3449 4.04428 15.2675 4.07867 15.1805C4.11306 15.0935 4.12594 14.9995 4.11621 14.9065C4.03415 14.1535 4.03415 13.3938 4.11621 12.6408C4.12594 12.5478 4.11306 12.4538 4.07867 12.3668C4.04428 12.2798 3.9894 12.2024 3.91869 12.1412L2.43147 10.805C2.34927 10.7331 2.29163 10.6374 2.26662 10.5311C2.24162 10.4248 2.2505 10.3134 2.29204 10.2124L3.45393 7.62141C3.49474 7.5312 3.5598 7.4541 3.64187 7.39871C3.72393 7.34332 3.81977 7.31181 3.91869 7.3077L5.90552 7.47036C5.99953 7.4787 6.09414 7.46402 6.1812 7.42758C6.26825 7.39114 6.34511 7.33404 6.40514 7.26122C6.88419 6.67365 7.42572 6.13991 8.02017 5.66943C8.09342 5.61177 8.15172 5.53732 8.19014 5.45239C8.22856 5.36745 8.24599 5.27452 8.24093 5.18143L8.12474 3.1946C8.11916 3.08615 8.14749 2.97866 8.20579 2.88704C8.26409 2.79543 8.34947 2.72424 8.45007 2.68336L11.0643 1.63766C11.1665 1.59746 11.2786 1.59041 11.385 1.61752C11.4913 1.64463 11.5865 1.70452 11.6569 1.78871L12.9466 3.31078C13.0078 3.3815 13.0852 3.43638 13.1722 3.47077C13.2592 3.50516 13.3532 3.51803 13.4462 3.50831C14.1992 3.42625 14.9589 3.42625 15.7119 3.50831C15.804 3.51945 15.8974 3.50839 15.9843 3.47604C16.0712 3.4437 16.1491 3.39102 16.2115 3.3224L17.5361 1.82356C17.6079 1.74137 17.7037 1.68372 17.81 1.65872C17.9162 1.63371 18.0277 1.6426 18.1286 1.68414L20.7197 2.84603C20.8201 2.88941 20.9043 2.9632 20.9606 3.05699C21.0169 3.15078 21.0423 3.25987 21.0334 3.36888L20.8707 5.35572C20.8624 5.44972 20.877 5.54433 20.9135 5.63139C20.9499 5.71844 21.007 5.7953 21.0798 5.85533C21.668 6.33376 22.2018 6.87535 22.6716 7.47036C22.7264 7.54684 22.8003 7.60752 22.886 7.64628C22.9717 7.68504 23.0661 7.70051 23.1596 7.69112L25.1465 7.57493C25.2546 7.57104 25.3614 7.60005 25.4526 7.65814C25.5439 7.71623 25.6154 7.80066 25.6577 7.90026L26.7034 10.5145C26.7386 10.6098 26.7453 10.7134 26.7226 10.8124C26.6999 10.9115 26.6488 11.0017 26.5756 11.0722Z"/>
</mask>
<path d="M27.3308 11.9669C27.5995 11.739 27.79 11.4325 27.8754 11.0907C27.9609 10.7489 27.937 10.3889 27.8072 10.0614L26.7615 7.44712C26.6242 7.12341 26.389 6.85077 26.089 6.66741C25.789 6.48405 25.4391 6.39917 25.0884 6.42466L23.4036 6.52923C22.996 6.04047 22.5491 5.58582 22.0675 5.16981L22.2069 3.47345C22.2374 3.11895 22.1549 2.76388 21.9713 2.45914C21.7876 2.15441 21.5121 1.91564 21.1844 1.77709L18.5934 0.615194C18.269 0.477312 17.9096 0.444631 17.5657 0.521751C17.2218 0.59887 16.9107 0.781908 16.6763 1.04509L15.5144 2.31156C14.8803 2.25886 14.2429 2.25886 13.6089 2.31156L12.5167 1.02186C12.2898 0.751717 11.9834 0.560186 11.6412 0.474631C11.299 0.389076 10.9385 0.413873 10.6112 0.54548L7.99693 1.59118C7.66764 1.72073 7.38789 1.95135 7.19791 2.24989C7.00793 2.54843 6.9175 2.89952 6.93961 3.25269L7.04418 4.93743C6.55521 5.34484 6.10054 5.79174 5.68476 6.27361L3.9884 6.13418C3.63659 6.10166 3.28357 6.18213 2.98061 6.3639C2.67765 6.54568 2.44052 6.8193 2.30366 7.14503L1.14176 9.73605C1.00388 10.0604 0.971202 10.4199 1.04832 10.7638C1.12544 11.1077 1.30848 11.4187 1.57166 11.6532L2.83813 12.8151C2.78543 13.4491 2.78543 14.0865 2.83813 14.7206L1.5949 15.8011C1.32622 16.029 1.13576 16.3355 1.0503 16.6773C0.96485 17.0191 0.98871 17.3791 1.11853 17.7066L2.18747 20.3674C2.31702 20.6967 2.54764 20.9764 2.84618 21.1664C3.14472 21.3564 3.4958 21.4468 3.84897 21.4247L5.53372 21.3201C5.9402 21.8135 6.38714 22.2721 6.86989 22.6912L6.73047 24.3875C6.70156 24.7388 6.78354 25.0903 6.96488 25.3925C7.14621 25.6947 7.41777 25.9325 7.74131 26.0723L10.3323 27.2342C10.6567 27.372 11.0161 27.4047 11.3601 27.3276C11.704 27.2505 12.015 27.0674 12.2495 26.8043L13.4114 25.5378C14.0454 25.5911 14.6828 25.5911 15.3169 25.5378L16.409 26.8275C16.6359 27.0976 16.9423 27.2892 17.2845 27.3747C17.6267 27.4603 17.9873 27.4355 18.3145 27.3039L20.9288 26.2582C21.2581 26.1286 21.5378 25.898 21.7278 25.5995C21.9178 25.3009 22.0082 24.9498 21.9861 24.5967L21.8815 22.9119C22.3647 22.4891 22.8117 22.0266 23.2177 21.5293L24.9141 21.6687C25.2659 21.7012 25.6189 21.6207 25.9219 21.439C26.2248 21.2572 26.462 20.9836 26.5988 20.6578L27.7607 18.0668C27.8986 17.7425 27.9313 17.383 27.8542 17.0391C27.7771 16.6952 27.594 16.3841 27.3308 16.1497L26.0644 14.9878C26.1165 14.3537 26.1165 13.7164 26.0644 13.0823L27.3541 11.9901L27.3308 11.9669ZM26.5756 11.0722L25.0535 12.3619C24.9828 12.4232 24.9279 12.5005 24.8935 12.5875C24.8591 12.6745 24.8463 12.7685 24.856 12.8615C24.9381 13.6145 24.9381 14.3742 24.856 15.1272C24.8449 15.2193 24.8559 15.3127 24.8883 15.3996C24.9206 15.4865 24.9733 15.5645 25.0419 15.6268L26.5407 16.9514C26.6229 17.0233 26.6806 17.119 26.7056 17.2253C26.7306 17.3316 26.7217 17.443 26.6802 17.544L25.5183 20.135C25.4749 20.2354 25.4011 20.3197 25.3073 20.376C25.2135 20.4322 25.1044 20.4577 24.9954 20.4487L23.0086 20.286C22.9147 20.2787 22.8204 20.2938 22.7335 20.3302C22.6466 20.3666 22.5696 20.4231 22.509 20.4952C22.0309 21.0836 21.4893 21.6175 20.8939 22.087C20.8207 22.1446 20.7624 22.2191 20.724 22.304C20.6855 22.3889 20.6681 22.4819 20.6732 22.575L20.7894 24.5618C20.7949 24.6702 20.7666 24.7777 20.7083 24.8694C20.65 24.961 20.5646 25.0322 20.464 25.073L17.8614 26.1768C17.7593 26.217 17.6471 26.2241 17.5407 26.197C17.4344 26.1699 17.3393 26.11 17.2688 26.0258L15.9791 24.5037C15.9251 24.4389 15.8577 24.3866 15.7814 24.3505C15.7052 24.3144 15.622 24.2953 15.5376 24.2946C14.7847 24.3774 14.0249 24.3774 13.2719 24.2946C13.1798 24.2824 13.0861 24.293 12.999 24.3254C12.9119 24.3578 12.8341 24.4111 12.7723 24.4805L11.4478 25.9793C11.3759 26.0615 11.2801 26.1191 11.1739 26.1442C11.0676 26.1692 10.9562 26.1603 10.8552 26.1187L8.26417 24.9568C8.16376 24.9135 8.07948 24.8397 8.0232 24.7459C7.96693 24.6521 7.94148 24.543 7.95046 24.434L8.11312 22.4472C8.12146 22.3532 8.10678 22.2585 8.07034 22.1715C8.0339 22.0844 7.9768 22.0076 7.90398 21.9475C7.2939 21.4833 6.73671 20.9534 6.24247 20.3674C6.18694 20.2918 6.11287 20.2317 6.0274 20.1931C5.94193 20.1544 5.84793 20.1384 5.75448 20.1466L3.76764 20.2628C3.65983 20.2651 3.55374 20.2354 3.46276 20.1775C3.37178 20.1197 3.29998 20.0361 3.25641 19.9375L2.21071 17.3232C2.1705 17.2211 2.16346 17.1089 2.19057 17.0025C2.21768 16.8962 2.27757 16.8011 2.36175 16.7306L3.91869 15.4061C3.9894 15.3449 4.04428 15.2675 4.07867 15.1805C4.11306 15.0935 4.12594 14.9995 4.11621 14.9065C4.03415 14.1535 4.03415 13.3938 4.11621 12.6408C4.12594 12.5478 4.11306 12.4538 4.07867 12.3668C4.04428 12.2798 3.9894 12.2024 3.91869 12.1412L2.43147 10.805C2.34927 10.7331 2.29163 10.6374 2.26662 10.5311C2.24162 10.4248 2.2505 10.3134 2.29204 10.2124L3.45393 7.62141C3.49474 7.5312 3.5598 7.4541 3.64187 7.39871C3.72393 7.34332 3.81977 7.31181 3.91869 7.3077L5.90552 7.47036C5.99953 7.4787 6.09414 7.46402 6.1812 7.42758C6.26825 7.39114 6.34511 7.33404 6.40514 7.26122C6.88419 6.67365 7.42572 6.13991 8.02017 5.66943C8.09342 5.61177 8.15172 5.53732 8.19014 5.45239C8.22856 5.36745 8.24599 5.27452 8.24093 5.18143L8.12474 3.1946C8.11916 3.08615 8.14749 2.97866 8.20579 2.88704C8.26409 2.79543 8.34947 2.72424 8.45007 2.68336L11.0643 1.63766C11.1665 1.59746 11.2786 1.59041 11.385 1.61752C11.4913 1.64463 11.5865 1.70452 11.6569 1.78871L12.9466 3.31078C13.0078 3.3815 13.0852 3.43638 13.1722 3.47077C13.2592 3.50516 13.3532 3.51803 13.4462 3.50831C14.1992 3.42625 14.9589 3.42625 15.7119 3.50831C15.804 3.51945 15.8974 3.50839 15.9843 3.47604C16.0712 3.4437 16.1491 3.39102 16.2115 3.3224L17.5361 1.82356C17.6079 1.74137 17.7037 1.68372 17.81 1.65872C17.9162 1.63371 18.0277 1.6426 18.1286 1.68414L20.7197 2.84603C20.8201 2.88941 20.9043 2.9632 20.9606 3.05699C21.0169 3.15078 21.0423 3.25987 21.0334 3.36888L20.8707 5.35572C20.8624 5.44972 20.877 5.54433 20.9135 5.63139C20.9499 5.71844 21.007 5.7953 21.0798 5.85533C21.668 6.33376 22.2018 6.87535 22.6716 7.47036C22.7264 7.54684 22.8003 7.60752 22.886 7.64628C22.9717 7.68504 23.0661 7.70051 23.1596 7.69112L25.1465 7.57493C25.2546 7.57104 25.3614 7.60005 25.4526 7.65814C25.5439 7.71623 25.6154 7.80066 25.6577 7.90026L26.7034 10.5145C26.7386 10.6098 26.7453 10.7134 26.7226 10.8124C26.6999 10.9115 26.6488 11.0017 26.5756 11.0722Z" fill="#7E7E7E"/>
<path d="M27.3308 11.9669C27.5995 11.739 27.79 11.4325 27.8754 11.0907C27.9609 10.7489 27.937 10.3889 27.8072 10.0614L26.7615 7.44712C26.6242 7.12341 26.389 6.85077 26.089 6.66741C25.789 6.48405 25.4391 6.39917 25.0884 6.42466L23.4036 6.52923C22.996 6.04047 22.5491 5.58582 22.0675 5.16981L22.2069 3.47345C22.2374 3.11895 22.1549 2.76388 21.9713 2.45914C21.7876 2.15441 21.5121 1.91564 21.1844 1.77709L18.5934 0.615194C18.269 0.477312 17.9096 0.444631 17.5657 0.521751C17.2218 0.59887 16.9107 0.781908 16.6763 1.04509L15.5144 2.31156C14.8803 2.25886 14.2429 2.25886 13.6089 2.31156L12.5167 1.02186C12.2898 0.751717 11.9834 0.560186 11.6412 0.474631C11.299 0.389076 10.9385 0.413873 10.6112 0.54548L7.99693 1.59118C7.66764 1.72073 7.38789 1.95135 7.19791 2.24989C7.00793 2.54843 6.9175 2.89952 6.93961 3.25269L7.04418 4.93743C6.55521 5.34484 6.10054 5.79174 5.68476 6.27361L3.9884 6.13418C3.63659 6.10166 3.28357 6.18213 2.98061 6.3639C2.67765 6.54568 2.44052 6.8193 2.30366 7.14503L1.14176 9.73605C1.00388 10.0604 0.971202 10.4199 1.04832 10.7638C1.12544 11.1077 1.30848 11.4187 1.57166 11.6532L2.83813 12.8151C2.78543 13.4491 2.78543 14.0865 2.83813 14.7206L1.5949 15.8011C1.32622 16.029 1.13576 16.3355 1.0503 16.6773C0.96485 17.0191 0.98871 17.3791 1.11853 17.7066L2.18747 20.3674C2.31702 20.6967 2.54764 20.9764 2.84618 21.1664C3.14472 21.3564 3.4958 21.4468 3.84897 21.4247L5.53372 21.3201C5.9402 21.8135 6.38714 22.2721 6.86989 22.6912L6.73047 24.3875C6.70156 24.7388 6.78354 25.0903 6.96488 25.3925C7.14621 25.6947 7.41777 25.9325 7.74131 26.0723L10.3323 27.2342C10.6567 27.372 11.0161 27.4047 11.3601 27.3276C11.704 27.2505 12.015 27.0674 12.2495 26.8043L13.4114 25.5378C14.0454 25.5911 14.6828 25.5911 15.3169 25.5378L16.409 26.8275C16.6359 27.0976 16.9423 27.2892 17.2845 27.3747C17.6267 27.4603 17.9873 27.4355 18.3145 27.3039L20.9288 26.2582C21.2581 26.1286 21.5378 25.898 21.7278 25.5995C21.9178 25.3009 22.0082 24.9498 21.9861 24.5967L21.8815 22.9119C22.3647 22.4891 22.8117 22.0266 23.2177 21.5293L24.9141 21.6687C25.2659 21.7012 25.6189 21.6207 25.9219 21.439C26.2248 21.2572 26.462 20.9836 26.5988 20.6578L27.7607 18.0668C27.8986 17.7425 27.9313 17.383 27.8542 17.0391C27.7771 16.6952 27.594 16.3841 27.3308 16.1497L26.0644 14.9878C26.1165 14.3537 26.1165 13.7164 26.0644 13.0823L27.3541 11.9901L27.3308 11.9669ZM26.5756 11.0722L25.0535 12.3619C24.9828 12.4232 24.9279 12.5005 24.8935 12.5875C24.8591 12.6745 24.8463 12.7685 24.856 12.8615C24.9381 13.6145 24.9381 14.3742 24.856 15.1272C24.8449 15.2193 24.8559 15.3127 24.8883 15.3996C24.9206 15.4865 24.9733 15.5645 25.0419 15.6268L26.5407 16.9514C26.6229 17.0233 26.6806 17.119 26.7056 17.2253C26.7306 17.3316 26.7217 17.443 26.6802 17.544L25.5183 20.135C25.4749 20.2354 25.4011 20.3197 25.3073 20.376C25.2135 20.4322 25.1044 20.4577 24.9954 20.4487L23.0086 20.286C22.9147 20.2787 22.8204 20.2938 22.7335 20.3302C22.6466 20.3666 22.5696 20.4231 22.509 20.4952C22.0309 21.0836 21.4893 21.6175 20.8939 22.087C20.8207 22.1446 20.7624 22.2191 20.724 22.304C20.6855 22.3889 20.6681 22.4819 20.6732 22.575L20.7894 24.5618C20.7949 24.6702 20.7666 24.7777 20.7083 24.8694C20.65 24.961 20.5646 25.0322 20.464 25.073L17.8614 26.1768C17.7593 26.217 17.6471 26.2241 17.5407 26.197C17.4344 26.1699 17.3393 26.11 17.2688 26.0258L15.9791 24.5037C15.9251 24.4389 15.8577 24.3866 15.7814 24.3505C15.7052 24.3144 15.622 24.2953 15.5376 24.2946C14.7847 24.3774 14.0249 24.3774 13.2719 24.2946C13.1798 24.2824 13.0861 24.293 12.999 24.3254C12.9119 24.3578 12.8341 24.4111 12.7723 24.4805L11.4478 25.9793C11.3759 26.0615 11.2801 26.1191 11.1739 26.1442C11.0676 26.1692 10.9562 26.1603 10.8552 26.1187L8.26417 24.9568C8.16376 24.9135 8.07948 24.8397 8.0232 24.7459C7.96693 24.6521 7.94148 24.543 7.95046 24.434L8.11312 22.4472C8.12146 22.3532 8.10678 22.2585 8.07034 22.1715C8.0339 22.0844 7.9768 22.0076 7.90398 21.9475C7.2939 21.4833 6.73671 20.9534 6.24247 20.3674C6.18694 20.2918 6.11287 20.2317 6.0274 20.1931C5.94193 20.1544 5.84793 20.1384 5.75448 20.1466L3.76764 20.2628C3.65983 20.2651 3.55374 20.2354 3.46276 20.1775C3.37178 20.1197 3.29998 20.0361 3.25641 19.9375L2.21071 17.3232C2.1705 17.2211 2.16346 17.1089 2.19057 17.0025C2.21768 16.8962 2.27757 16.8011 2.36175 16.7306L3.91869 15.4061C3.9894 15.3449 4.04428 15.2675 4.07867 15.1805C4.11306 15.0935 4.12594 14.9995 4.11621 14.9065C4.03415 14.1535 4.03415 13.3938 4.11621 12.6408C4.12594 12.5478 4.11306 12.4538 4.07867 12.3668C4.04428 12.2798 3.9894 12.2024 3.91869 12.1412L2.43147 10.805C2.34927 10.7331 2.29163 10.6374 2.26662 10.5311C2.24162 10.4248 2.2505 10.3134 2.29204 10.2124L3.45393 7.62141C3.49474 7.5312 3.5598 7.4541 3.64187 7.39871C3.72393 7.34332 3.81977 7.31181 3.91869 7.3077L5.90552 7.47036C5.99953 7.4787 6.09414 7.46402 6.1812 7.42758C6.26825 7.39114 6.34511 7.33404 6.40514 7.26122C6.88419 6.67365 7.42572 6.13991 8.02017 5.66943C8.09342 5.61177 8.15172 5.53732 8.19014 5.45239C8.22856 5.36745 8.24599 5.27452 8.24093 5.18143L8.12474 3.1946C8.11916 3.08615 8.14749 2.97866 8.20579 2.88704C8.26409 2.79543 8.34947 2.72424 8.45007 2.68336L11.0643 1.63766C11.1665 1.59746 11.2786 1.59041 11.385 1.61752C11.4913 1.64463 11.5865 1.70452 11.6569 1.78871L12.9466 3.31078C13.0078 3.3815 13.0852 3.43638 13.1722 3.47077C13.2592 3.50516 13.3532 3.51803 13.4462 3.50831C14.1992 3.42625 14.9589 3.42625 15.7119 3.50831C15.804 3.51945 15.8974 3.50839 15.9843 3.47604C16.0712 3.4437 16.1491 3.39102 16.2115 3.3224L17.5361 1.82356C17.6079 1.74137 17.7037 1.68372 17.81 1.65872C17.9162 1.63371 18.0277 1.6426 18.1286 1.68414L20.7197 2.84603C20.8201 2.88941 20.9043 2.9632 20.9606 3.05699C21.0169 3.15078 21.0423 3.25987 21.0334 3.36888L20.8707 5.35572C20.8624 5.44972 20.877 5.54433 20.9135 5.63139C20.9499 5.71844 21.007 5.7953 21.0798 5.85533C21.668 6.33376 22.2018 6.87535 22.6716 7.47036C22.7264 7.54684 22.8003 7.60752 22.886 7.64628C22.9717 7.68504 23.0661 7.70051 23.1596 7.69112L25.1465 7.57493C25.2546 7.57104 25.3614 7.60005 25.4526 7.65814C25.5439 7.71623 25.6154 7.80066 25.6577 7.90026L26.7034 10.5145C26.7386 10.6098 26.7453 10.7134 26.7226 10.8124C26.6999 10.9115 26.6488 11.0017 26.5756 11.0722Z" stroke="#7E7E7E" stroke-width="0.8" mask="url(#path-1-outside-1_83_902)"/>
<path d="M12.2726 21.1718L17.2638 12.5267C17.7478 12.5844 18.2082 12.5547 18.7327 12.4141C20.6558 11.8988 21.8077 9.9038 21.2924 7.98071C21.1518 7.45623 20.9473 7.04259 20.6554 6.65237L18.7996 9.8666L16.4721 8.52279L18.3278 5.30856C17.8439 5.25084 17.3834 5.28054 16.8589 5.42108C14.9358 5.93637 13.784 7.93141 14.2993 9.8545C14.4398 10.379 14.6444 10.7926 14.9363 11.1828L9.94501 19.828C9.56106 20.493 9.77186 21.2797 10.4369 21.6637C11.1019 22.0476 11.8886 21.8368 12.2726 21.1718ZM15.3048 12.2084L16.2007 10.6567L17.1982 11.2326L16.3023 12.7843L15.3048 12.2084ZM10.5695 20.4102C10.4758 20.0606 10.6443 19.6406 11.0814 19.5235C11.431 19.4298 11.851 19.5984 11.9681 20.0354C12.0852 20.4725 11.8932 20.805 11.4561 20.9221C11.0191 21.0392 10.6866 20.8473 10.5695 20.4102Z" fill="#7E7E7E"/>
</svg>
