<svg width="24" height="22" viewBox="0 0 24 22" fill="none" xmlns="http://www.w3.org/2000/svg">
<path fill-rule="evenodd" clip-rule="evenodd" d="M19.2135 0.694253L19.4105 0.757224L20.8898 1.22368C21.4597 1.40443 21.9606 1.56186 22.3557 1.73678C22.784 1.92569 23.1766 2.16825 23.4769 2.56357C23.7772 2.95773 23.8966 3.38803 23.9508 3.83233C24 4.24398 24 4.74308 24 5.31333V14.8897C24 15.7036 24 16.3905 23.9335 16.9339C23.8646 17.4983 23.7095 18.0557 23.2751 18.5058C23.0179 18.7726 22.7053 18.9862 22.3569 19.1332C21.7686 19.3805 21.1618 19.3431 20.5748 19.2277C20.0086 19.1157 19.3218 18.8988 18.5071 18.6411L18.4542 18.6248C17.0757 18.1887 16.6018 18.0534 16.144 18.0685C15.9611 18.0744 15.7793 18.0975 15.6012 18.1374C15.1545 18.2365 14.736 18.486 13.5262 19.2498L11.8252 20.325L11.6529 20.4335C10.3458 21.2603 9.43754 21.834 8.37415 21.9693C7.312 22.1045 6.27569 21.7769 4.78646 21.3046L4.58954 21.2428L3.11015 20.7763C2.54031 20.5956 2.03938 20.4381 1.64431 20.2632C1.216 20.0743 0.823385 19.8317 0.523077 19.4353C0.222769 19.0411 0.103385 18.612 0.0492307 18.1665C-4.58497e-08 17.7549 0 17.2569 0 16.6867V7.11035C0 6.29522 -1.23794e-07 5.60836 0.0664614 5.06611C0.135385 4.50169 0.290462 3.94428 0.724923 3.49415C0.982115 3.22735 1.2947 3.01376 1.64308 2.86677C2.23138 2.61838 2.83938 2.6557 3.42523 2.77231C3.99138 2.88309 4.67815 3.10116 5.49292 3.35888L5.54585 3.3752C6.92431 3.81017 7.39815 3.94661 7.85723 3.93145C8.0397 3.92549 8.22109 3.90244 8.39877 3.86265C8.84554 3.76236 9.264 3.51281 10.4738 2.75015L12.1748 1.67498L12.3471 1.56536C13.6542 0.739732 14.5625 0.165992 15.6246 0.03072C16.688 -0.104552 17.7243 0.221967 19.2135 0.694253ZM16.6154 1.79392V16.3403C17.2751 16.408 17.9692 16.6272 18.8837 16.9164L19.0375 16.9654C19.92 17.2441 20.5046 17.4272 20.9514 17.5158C21.3895 17.6021 21.5385 17.5624 21.6062 17.5345C21.7224 17.4856 21.8267 17.4146 21.9126 17.3257C21.9618 17.2744 22.048 17.152 22.0997 16.731C22.1526 16.3018 22.1538 15.7176 22.1538 14.8372V5.35881C22.1538 4.72909 22.1526 4.3326 22.1169 4.03174C22.0825 3.75303 22.0283 3.64925 21.9791 3.58628C21.9311 3.5233 21.8449 3.44051 21.5778 3.32273C21.2874 3.19445 20.8886 3.06851 20.2609 2.8691L18.8271 2.41664C17.7354 2.07146 17.088 1.87555 16.6154 1.79392ZM14.7692 16.5502V2.17641C14.3865 2.38632 13.8954 2.69068 13.1988 3.13032L11.4978 4.20549L11.3625 4.29062C10.5157 4.82705 9.88431 5.22587 9.23077 5.44977V19.8236C9.61354 19.6137 10.1046 19.3081 10.8012 18.8685L12.5022 17.7945L12.6375 17.7094C13.4843 17.173 14.1157 16.7741 14.7692 16.5502ZM7.38462 20.2061V5.6585C6.72492 5.59087 6.03077 5.37163 5.11631 5.08243L4.96246 5.03345C4.08 4.75475 3.49538 4.57166 3.04738 4.48304C2.61046 4.39674 2.46154 4.43522 2.39508 4.46321C2.27829 4.51225 2.17351 4.58373 2.08738 4.67312C2.03815 4.72326 1.952 4.84571 1.90031 5.26668C1.84738 5.69582 1.84615 6.28122 1.84615 7.16166V16.64C1.84615 17.2697 1.84738 17.6662 1.88308 17.9671C1.91754 18.2458 1.97169 18.3484 2.02092 18.4126C2.06892 18.4755 2.15508 18.5583 2.42215 18.6761C2.71262 18.8044 3.11138 18.9303 3.73908 19.1297L5.17292 19.5822C6.26462 19.9262 6.91077 20.1221 7.38462 20.2049V20.2061Z" fill="#7E7E7E"/>
</svg>
