<svg width="27" height="27" viewBox="0 0 27 27" fill="none" xmlns="http://www.w3.org/2000/svg">
<path d="M16.1667 1C17.4708 0.999999 18.7251 1.50126 19.6701 2.40011C20.6151 3.29895 21.1784 4.52661 21.2436 5.82917L21.25 6.08333V21.3333C21.25 22.6375 20.7487 23.8918 19.8499 24.8368C18.951 25.7817 17.7234 26.3451 16.4208 26.4103L16.1667 26.4167H11.0833C9.77915 26.4167 8.52486 25.9154 7.57989 25.0166C6.63491 24.1177 6.07156 22.8901 6.00635 21.5875L6 21.3333V6.08333C6 4.77915 6.50126 3.52486 7.40011 2.57988C8.29895 1.63491 9.52662 1.07156 10.8292 1.00635L11.0833 1H16.1667ZM16.1667 3.54167H11.0833C10.4421 3.54146 9.82449 3.78364 9.3543 4.21965C8.88412 4.65566 8.59611 5.25328 8.54802 5.89271L8.54167 6.08333V21.3333C8.54146 21.9746 8.78364 22.5922 9.21965 23.0624C9.65566 23.5325 10.2533 23.8206 10.8927 23.8686L11.0833 23.875H16.1667C16.8079 23.8752 17.4255 23.633 17.8957 23.197C18.3659 22.761 18.6539 22.1634 18.702 21.524L18.7083 21.3333V6.08333C18.7083 5.40924 18.4406 4.76276 17.9639 4.2861C17.4872 3.80945 16.8408 3.54167 16.1667 3.54167ZM13.625 17.5208C14.2991 17.5208 14.9456 17.7886 15.4222 18.2653C15.8989 18.7419 16.1667 19.3884 16.1667 20.0625C16.1667 20.7366 15.8989 21.3831 15.4222 21.8597C14.9456 22.3364 14.2991 22.6042 13.625 22.6042C12.9509 22.6042 12.3044 22.3364 11.8278 21.8597C11.3511 21.3831 11.0833 20.7366 11.0833 20.0625C11.0833 19.3884 11.3511 18.7419 11.8278 18.2653C12.3044 17.7886 12.9509 17.5208 13.625 17.5208ZM13.625 11.1667C14.2991 11.1667 14.9456 11.4344 15.4222 11.9111C15.8989 12.3878 16.1667 13.0342 16.1667 13.7083C16.1667 14.3824 15.8989 15.0289 15.4222 15.5056C14.9456 15.9822 14.2991 16.25 13.625 16.25C12.9509 16.25 12.3044 15.9822 11.8278 15.5056C11.3511 15.0289 11.0833 14.3824 11.0833 13.7083C11.0833 13.0342 11.3511 12.3878 11.8278 11.9111C12.3044 11.4344 12.9509 11.1667 13.625 11.1667ZM13.625 4.8125C14.2991 4.8125 14.9456 5.08028 15.4222 5.55694C15.8989 6.03359 16.1667 6.68007 16.1667 7.35417C16.1667 8.02826 15.8989 8.67474 15.4222 9.1514C14.9456 9.62805 14.2991 9.89583 13.625 9.89583C12.9509 9.89583 12.3044 9.62805 11.8278 9.1514C11.3511 8.67474 11.0833 8.02826 11.0833 7.35417C11.0833 6.68007 11.3511 6.03359 11.8278 5.55694C12.3044 5.08028 12.9509 4.8125 13.625 4.8125Z" fill="#008540" stroke="white" stroke-width="0.677778"/>
</svg>
