<svg width="13" height="18" viewBox="0 0 13 18" fill="none" xmlns="http://www.w3.org/2000/svg">
<path d="M10.342 0.0769926C10.4576 0.14082 10.5471 0.240097 10.5958 0.358606C10.6446 0.477116 10.6496 0.607851 10.6102 0.729455L8.48184 7.31258H12.4089C12.5243 7.31254 12.6372 7.34466 12.7336 7.40499C12.8301 7.46533 12.9058 7.55122 12.9516 7.65208C12.9973 7.75293 13.0111 7.86433 12.9911 7.97253C12.9711 8.08072 12.9182 8.18097 12.839 8.2609L3.38484 17.8229C3.29336 17.9155 3.17163 17.9758 3.03949 17.9941C2.90735 18.0124 2.7726 17.9876 2.65719 17.9237C2.54177 17.8597 2.45251 17.7605 2.40396 17.6421C2.3554 17.5237 2.3504 17.3931 2.38979 17.2716L4.51816 10.6874H0.591123C0.475717 10.6874 0.362823 10.6553 0.266379 10.595C0.169934 10.5346 0.0941597 10.4487 0.0484109 10.3479C0.00266205 10.247 -0.011059 10.1356 0.0089415 10.0274C0.028942 9.91925 0.0817883 9.819 0.160957 9.73907L9.61516 0.177112C9.70652 0.0846412 9.82807 0.0243103 9.96002 0.00592874C10.092 -0.0124528 10.2266 0.0121961 10.342 0.0758676V0.0769926ZM1.95844 9.56245H5.31822C5.4107 9.56244 5.50188 9.58308 5.58444 9.62272C5.66701 9.66236 5.73864 9.7199 5.79359 9.79069C5.84854 9.86149 5.88527 9.94358 5.90081 10.0303C5.91636 10.1171 5.9103 10.2062 5.88311 10.2903L4.26644 15.2884L11.0404 8.43752H7.68177C7.5893 8.43753 7.49812 8.41689 7.41555 8.37725C7.33299 8.33761 7.26135 8.28007 7.20641 8.20928C7.15146 8.13848 7.11473 8.05639 7.09918 7.96962C7.08364 7.88285 7.0897 7.79382 7.11689 7.70968L8.73355 2.71159L1.95844 9.56245Z" fill="#363636"/>
</svg>
