<svg width="20" height="25" viewBox="0 0 20 25" fill="none" xmlns="http://www.w3.org/2000/svg">
<path d="M0.446533 25C0.446533 19.7401 4.69983 15.4762 9.94653 15.4762C15.1933 15.4762 19.4465 19.7401 19.4465 25H17.0715C17.0715 21.0551 13.8816 17.8571 9.94653 17.8571C6.0115 17.8571 2.82153 21.0551 2.82153 25H0.446533ZM9.94653 14.2857C6.00997 14.2857 2.82153 11.0893 2.82153 7.14286C2.82153 3.19643 6.00997 0 9.94653 0C13.8831 0 17.0715 3.19643 17.0715 7.14286C17.0715 11.0893 13.8831 14.2857 9.94653 14.2857ZM9.94653 11.9048C12.5709 11.9048 14.6965 9.77381 14.6965 7.14286C14.6965 4.5119 12.5709 2.38095 9.94653 2.38095C7.32216 2.38095 5.19653 4.5119 5.19653 7.14286C5.19653 9.77381 7.32216 11.9048 9.94653 11.9048Z" fill="#C6C6C6"/>
</svg>
