<svg width="18" height="18" viewBox="0 0 18 18" fill="none" xmlns="http://www.w3.org/2000/svg">
<path d="M12 1.125C12.2984 1.125 12.5845 1.24353 12.7955 1.4545C13.0065 1.66548 13.125 1.95163 13.125 2.25V15.75C13.125 16.0484 13.0065 16.3345 12.7955 16.5455C12.5845 16.7565 12.2984 16.875 12 16.875H5.25C4.95163 16.875 4.66548 16.7565 4.45451 16.5455C4.24353 16.3345 4.125 16.0484 4.125 15.75V2.25C4.125 1.95163 4.24353 1.66548 4.45451 1.4545C4.66548 1.24353 4.95163 1.125 5.25 1.125H12ZM5.25 0C4.65326 0 4.08097 0.237053 3.65901 0.65901C3.23705 1.08097 3 1.65326 3 2.25V15.75C3 16.3467 3.23705 16.919 3.65901 17.341C4.08097 17.7629 4.65326 18 5.25 18H12C12.5967 18 13.169 17.7629 13.591 17.341C14.0129 16.919 14.25 16.3467 14.25 15.75V2.25C14.25 1.65326 14.0129 1.08097 13.591 0.65901C13.169 0.237053 12.5967 0 12 0L5.25 0Z" fill="#929292"/>
<path d="M8.625 15.75C8.92337 15.75 9.20952 15.6315 9.42049 15.4205C9.63147 15.2095 9.75 14.9234 9.75 14.625C9.75 14.3266 9.63147 14.0405 9.42049 13.8295C9.20952 13.6185 8.92337 13.5 8.625 13.5C8.32663 13.5 8.04048 13.6185 7.82951 13.8295C7.61853 14.0405 7.5 14.3266 7.5 14.625C7.5 14.9234 7.61853 15.2095 7.82951 15.4205C8.04048 15.6315 8.32663 15.75 8.625 15.75Z" fill="#929292"/>
</svg>
