<svg width="32" height="32" viewBox="0 0 32 32" fill="none" xmlns="http://www.w3.org/2000/svg">
<path d="M6.61194 12.0551L6.70033 11.9667L6.61194 12.0551L9.91194 15.3551L10.0003 15.4434L10.0887 15.3551L13.3887 12.0551L13.3003 11.9667L13.3887 12.0551C14.0588 11.3849 14.5151 10.5311 14.7 9.60163C14.8848 8.67215 14.7899 7.70874 14.4272 6.8332C14.0645 5.95767 13.4504 5.20934 12.6624 4.68285C11.8744 4.15635 10.948 3.87534 10.0003 3.87534C9.05265 3.87534 8.12625 4.15635 7.33827 4.68285C6.5503 5.20934 5.93614 5.95767 5.57345 6.8332C5.21077 7.70874 5.11585 8.67215 5.3007 9.60163C5.48554 10.5311 5.94186 11.3849 6.61194 12.0551ZM15.0986 13.765L10.0016 18.8619L4.90207 13.765C4.90206 13.765 4.90204 13.7649 4.90203 13.7649C3.89429 12.7567 3.20811 11.4723 2.93025 10.0741C2.65239 8.67595 2.79534 7.22677 3.34102 5.90981C3.8867 4.59286 4.81061 3.46727 5.99594 2.67536C7.18128 1.88345 8.5748 1.46077 10.0003 1.46077C11.4259 1.46077 12.8194 1.88345 14.0047 2.67536C15.19 3.46727 16.114 4.59286 16.6596 5.90981C17.2053 7.22677 17.3483 8.67595 17.0704 10.0741C16.7925 11.4723 16.1064 12.7567 15.0986 13.7649C15.0986 13.765 15.0986 13.765 15.0986 13.765ZM21.9119 27.3551L22.0003 27.4434L22.0887 27.3551L25.3887 24.0551L25.3003 23.9667L25.3887 24.0551C26.0588 23.3849 26.5151 22.5311 26.7 21.6016C26.8848 20.6722 26.7899 19.7087 26.4272 18.8332C26.0645 17.9577 25.4504 17.2093 24.6624 16.6828C23.8744 16.1564 22.948 15.8753 22.0003 15.8753C21.0526 15.8753 20.1262 16.1564 19.3383 16.6828C18.5503 17.2093 17.9361 17.9577 17.5735 18.8332C17.2108 19.7087 17.1158 20.6722 17.3007 21.6016C17.4855 22.5311 17.9419 23.3849 18.6119 24.0551L18.7003 23.9667L18.6119 24.0551L21.9119 27.3551ZM10.0003 10.5417C9.50305 10.5417 9.02613 10.3441 8.6745 9.99249C8.32287 9.64086 8.12533 9.16395 8.12533 8.66667C8.12533 8.16939 8.32287 7.69247 8.6745 7.34084C9.02613 6.98921 9.50305 6.79167 10.0003 6.79167C10.4976 6.79167 10.9745 6.98921 11.3262 7.34084C11.6778 7.69247 11.8753 8.16939 11.8753 8.66667C11.8753 9.16395 11.6778 9.64086 11.3262 9.99249C10.9745 10.3441 10.4976 10.5417 10.0003 10.5417ZM27.0986 25.765L22.0003 30.8606L16.9021 25.7636C16.9021 25.7636 16.902 25.7636 16.902 25.7636C15.8943 24.7554 15.2081 23.471 14.9303 22.0728C14.6524 20.6746 14.7953 19.2254 15.341 17.9085C15.8867 16.5915 16.8106 15.4659 17.9959 14.674C19.1813 13.8821 20.5748 13.4594 22.0003 13.4594C23.4259 13.4594 24.8194 13.8821 26.0047 14.674C27.19 15.4659 28.114 16.5915 28.6596 17.9085C29.2053 19.2254 29.3483 20.6746 29.0704 22.0728C28.7925 23.471 28.1063 24.7567 27.0986 25.7649C27.0986 25.7649 27.0986 25.765 27.0986 25.765ZM22.0003 22.5417C21.503 22.5417 21.0261 22.3441 20.6745 21.9925C20.3229 21.6409 20.1253 21.164 20.1253 20.6667C20.1253 20.1694 20.3229 19.6925 20.6745 19.3408C21.0261 18.9892 21.503 18.7917 22.0003 18.7917C22.4976 18.7917 22.9745 18.9892 23.3262 19.3408C23.6778 19.6925 23.8753 20.1694 23.8753 20.6667C23.8753 21.164 23.6778 21.6409 23.3262 21.9925C22.9745 22.3441 22.4976 22.5417 22.0003 22.5417Z" fill="#7E7E7E" stroke="#F0F8F4" stroke-width="0.25"/>
</svg>
