<svg width="21" height="21" viewBox="0 0 21 21" fill="none" xmlns="http://www.w3.org/2000/svg">
<path fill-rule="evenodd" clip-rule="evenodd" d="M5.5118 2.1C5.20097 0.892339 4.1047 0 2.8 0C1.2536 0 0 1.2536 0 2.8C0 4.34641 1.2536 5.6 2.8 5.6C4.1047 5.6 5.20097 4.70768 5.5118 3.5H13.4525C15.3856 3.5 16.9525 5.06702 16.9525 7V7.43477L15.4949 6.00726C15.2186 5.73678 14.7754 5.74144 14.505 6.01766C14.2345 6.29388 14.2391 6.73705 14.5153 7.00753L17.1628 9.60012C17.4349 9.86664 17.8702 9.86664 18.1423 9.60012L20.7898 7.00753C21.066 6.73705 21.0706 6.29388 20.8001 6.01766C20.5296 5.74144 20.0865 5.73678 19.8103 6.0073L18.3525 7.43477V7C18.3525 4.2938 16.1587 2.1 13.4525 2.1H5.5118ZM2.8 1.4C3.57319 1.4 4.2 2.0268 4.2 2.8C4.2 3.57319 3.57319 4.2 2.8 4.2C2.0268 4.2 1.4 3.57319 1.4 2.8C1.4 2.0268 2.0268 1.4 2.8 1.4Z" fill="#008540"/>
<path fill-rule="evenodd" clip-rule="evenodd" d="M15.4882 17.5H7.54747C5.61446 17.5 4.04747 15.933 4.04747 14V13.5652L5.50515 14.9927C5.78137 15.2632 6.22458 15.2586 6.49506 14.9824C6.76554 14.7062 6.76092 14.263 6.4847 13.9925L3.83723 11.3999C3.5651 11.1334 3.12984 11.1334 2.85772 11.3999L0.210234 13.9925C-0.0659788 14.263 -0.0706199 14.7061 0.199871 14.9824C0.470358 15.2586 0.913549 15.2632 1.18977 14.9927L2.64746 13.5652V14C2.64746 16.7062 4.84127 18.9 7.54747 18.9H15.4882C15.799 20.1077 16.8953 21 18.2 21C19.7464 21 21 19.7464 21 18.2C21 16.6536 19.7464 15.4 18.2 15.4C16.8953 15.4 15.799 16.2923 15.4882 17.5ZM16.8 18.2C16.8 18.9732 17.4268 19.6 18.2 19.6C18.9732 19.6 19.6 18.9732 19.6 18.2C19.6 17.4268 18.9732 16.8 18.2 16.8C17.4268 16.8 16.8 17.4268 16.8 18.2Z" fill="#008540"/>
</svg>
