<svg width="28" height="24" viewBox="0 0 28 24" fill="none" xmlns="http://www.w3.org/2000/svg">
<path d="M15.2439 1L26.756 20.9387C26.9315 21.2427 27.0239 21.5876 27.0239 21.9387C27.0239 22.2897 26.9315 22.6346 26.756 22.9386C26.5804 23.2427 26.328 23.4952 26.0239 23.6707C25.7199 23.8462 25.375 23.9387 25.024 23.9387H1.99995C1.64888 23.9387 1.304 23.8462 0.999967 23.6707C0.695936 23.4952 0.443467 23.2427 0.267936 22.9386C0.0924057 22.6346 -2.22966e-06 22.2897 0 21.9387C2.22974e-06 21.5876 0.0924146 21.2427 0.267949 20.9387L11.7799 1C12.5493 -0.333333 14.4733 -0.333333 15.2439 1ZM13.5119 3.33333L3.15462 21.272H23.8693L13.5119 3.33333ZM13.5119 16.8027C13.8656 16.8027 14.2047 16.9431 14.4548 17.1932C14.7048 17.4432 14.8453 17.7824 14.8453 18.136C14.8453 18.4896 14.7048 18.8288 14.4548 19.0788C14.2047 19.3289 13.8656 19.4693 13.5119 19.4693C13.1583 19.4693 12.8192 19.3289 12.5691 19.0788C12.3191 18.8288 12.1786 18.4896 12.1786 18.136C12.1786 17.7824 12.3191 17.4432 12.5691 17.1932C12.8192 16.9431 13.1583 16.8027 13.5119 16.8027ZM13.5119 7.46933C13.8656 7.46933 14.2047 7.60981 14.4548 7.85986C14.7048 8.10991 14.8453 8.44905 14.8453 8.80267V14.136C14.8453 14.4896 14.7048 14.8288 14.4548 15.0788C14.2047 15.3289 13.8656 15.4693 13.5119 15.4693C13.1583 15.4693 12.8192 15.3289 12.5691 15.0788C12.3191 14.8288 12.1786 14.4896 12.1786 14.136V8.80267C12.1786 8.44905 12.3191 8.10991 12.5691 7.85986C12.8192 7.60981 13.1583 7.46933 13.5119 7.46933Z" fill="#FF5151"/>
</svg>
