<svg width="28" height="29" viewBox="0 0 28 29" fill="none" xmlns="http://www.w3.org/2000/svg">
<g clip-path="url(#clip0_81_896)">
<path d="M4.43994 7.88068C4.43994 6.78068 5.33994 5.88068 6.43994 5.88068H20.4399C20.9704 5.88068 21.4791 6.09139 21.8542 6.46646C22.2292 6.84154 22.4399 7.35024 22.4399 7.88068V21.8807C22.4399 22.4111 22.2292 22.9198 21.8542 23.2949C21.4791 23.67 20.9704 23.8807 20.4399 23.8807H6.43994C5.90951 23.8807 5.4008 23.67 5.02573 23.2949C4.65066 22.9198 4.43994 22.4111 4.43994 21.8807V7.88068ZM6.43994 9.88068V21.8807H20.4399V9.88068H6.43994ZM8.43994 3.88068H10.4399V5.88068H8.43994V3.88068ZM16.4399 3.88068H18.4399V5.88068H16.4399V3.88068ZM8.43994 12.8807H10.4399V14.8807H8.43994V12.8807ZM8.43994 16.8807H10.4399V18.8807H8.43994V16.8807ZM12.4399 12.8807H14.4399V14.8807H12.4399V12.8807ZM12.4399 16.8807H14.4399V18.8807H12.4399V16.8807ZM16.4399 12.8807H18.4399V14.8807H16.4399V12.8807ZM16.4399 16.8807H18.4399V18.8807H16.4399V16.8807Z" fill="#7E7E7E"/>
</g>
<defs>
<clipPath id="clip0_81_896">
<rect width="20" height="20" fill="white" transform="translate(3.43994 3.88068)"/>
</clipPath>
</defs>
</svg>
