<svg width="28" height="28" viewBox="0 0 28 28" fill="none" xmlns="http://www.w3.org/2000/svg">
<path d="M25.3283 23.6717L21 19.3783C22.6801 17.2835 23.4938 14.6245 23.2736 11.9482C23.0535 9.27186 21.8163 6.78159 19.8165 4.98943C17.8166 3.19727 15.2061 2.23944 12.5218 2.31289C9.83739 2.38635 7.28319 3.4855 5.38434 5.38434C3.4855 7.28319 2.38635 9.83739 2.31289 12.5218C2.23944 15.2061 3.19727 17.8166 4.98943 19.8165C6.78159 21.8163 9.27186 23.0535 11.9482 23.2736C14.6245 23.4938 17.2835 22.6801 19.3783 21L23.6717 25.2933C23.7801 25.4027 23.9092 25.4895 24.0513 25.5487C24.1935 25.6079 24.346 25.6384 24.5 25.6384C24.654 25.6384 24.8065 25.6079 24.9487 25.5487C25.0909 25.4895 25.2199 25.4027 25.3283 25.2933C25.5386 25.0758 25.6562 24.7851 25.6562 24.4825C25.6562 24.1799 25.5386 23.8892 25.3283 23.6717ZM12.8333 21C11.2181 21 9.63919 20.521 8.29619 19.6237C6.95319 18.7263 5.90644 17.4509 5.28833 15.9586C4.67021 14.4663 4.50848 12.8243 4.8236 11.2401C5.13871 9.65593 5.91651 8.20077 7.05864 7.05864C8.20077 5.91651 9.65593 5.13871 11.2401 4.8236C12.8243 4.50848 14.4663 4.67021 15.9586 5.28833C17.4509 5.90644 18.7263 6.95319 19.6237 8.29619C20.521 9.63919 21 11.2181 21 12.8333C21 14.9993 20.1396 17.0765 18.608 18.608C17.0765 20.1396 14.9993 21 12.8333 21Z" fill="white"/>
</svg>
