<svg width="28" height="28" viewBox="0 0 28 28" fill="none" xmlns="http://www.w3.org/2000/svg">
<path d="M14.1678 1.68869L25.0358 7.98069V20.5647L14.1678 26.8567L3.2998 20.5647V7.98069L14.1678 1.68869ZM14.1678 4.33247L5.5878 9.29985V19.2455L14.1678 24.2129L22.7478 19.2455V9.29985L14.1678 4.33247ZM14.1678 18.8487C11.6405 18.8487 9.5918 16.7999 9.5918 14.2727C9.5918 11.7454 11.6405 9.69669 14.1678 9.69669C16.695 9.69669 18.7438 11.7454 18.7438 14.2727C18.7438 16.7999 16.695 18.8487 14.1678 18.8487ZM14.1678 16.5607C15.4315 16.5607 16.4558 15.5364 16.4558 14.2727C16.4558 13.009 15.4315 11.9847 14.1678 11.9847C12.9041 11.9847 11.8798 13.009 11.8798 14.2727C11.8798 15.5364 12.9041 16.5607 14.1678 16.5607Z" fill="#7E7E7E"/>
</svg>
