<svg width="22" height="22" viewBox="0 0 22 22" fill="none" xmlns="http://www.w3.org/2000/svg">
<path d="M20.4586 9.52976C20.6572 9.36132 20.7979 9.13488 20.8611 8.88228C20.9242 8.62968 20.9066 8.36363 20.8107 8.12158L20.0379 6.18963C19.9364 5.9504 19.7626 5.74892 19.5409 5.61341C19.3192 5.47791 19.0606 5.41518 18.8014 5.43402L17.5564 5.5113C17.2552 5.1501 16.9249 4.81411 16.569 4.50668L16.672 3.25306C16.6946 2.99108 16.6336 2.72869 16.4979 2.50348C16.3621 2.27828 16.1586 2.10183 15.9164 1.99944L14.0016 1.14079C13.7619 1.0389 13.4963 1.01475 13.2421 1.07174C12.988 1.12873 12.7581 1.264 12.5848 1.45849L11.7262 2.39442C11.2576 2.35547 10.7866 2.35547 10.318 2.39442L9.5109 1.44132C9.34326 1.24169 9.11681 1.10014 8.86391 1.03692C8.611 0.973692 8.34459 0.992017 8.10272 1.08928L6.17077 1.86206C5.92742 1.95779 5.72069 2.12822 5.58029 2.34885C5.4399 2.56947 5.37306 2.82892 5.3894 3.08992L5.46668 4.33495C5.10533 4.63603 4.76933 4.96629 4.46207 5.3224L3.20845 5.21936C2.94845 5.19532 2.68757 5.25479 2.46368 5.38912C2.23979 5.52346 2.06455 5.72567 1.96341 5.96638L1.10476 7.88116C1.00287 8.12087 0.978718 8.38649 1.03571 8.64065C1.0927 8.8948 1.22797 9.12468 1.42246 9.29792L2.35839 10.1566C2.31944 10.6252 2.31944 11.0962 2.35839 11.5647L1.43964 12.3633C1.24108 12.5317 1.10032 12.7582 1.03717 13.0108C0.974024 13.2634 0.991657 13.5294 1.08759 13.7715L1.87755 15.7378C1.97328 15.9811 2.14371 16.1878 2.36433 16.3282C2.58496 16.4686 2.84441 16.5355 3.10541 16.5191L4.35044 16.4418C4.65083 16.8065 4.98113 17.1454 5.33788 17.4551L5.23485 18.7087C5.21348 18.9683 5.27407 19.228 5.40808 19.4514C5.54209 19.6747 5.74277 19.8504 5.98187 19.9537L7.89665 20.8124C8.13635 20.9142 8.40198 20.9384 8.65614 20.8814C8.91029 20.8244 9.14017 20.6892 9.31341 20.4947L10.1721 19.5587C10.6406 19.5981 11.1117 19.5981 11.5802 19.5587L12.3874 20.5118C12.555 20.7115 12.7815 20.853 13.0344 20.9162C13.2873 20.9795 13.5537 20.9611 13.7955 20.8639L15.7275 20.0911C15.9708 19.9954 16.1776 19.8249 16.318 19.6043C16.4584 19.3837 16.5252 19.1242 16.5089 18.8632L16.4316 17.6182C16.7886 17.3057 17.1189 16.9639 17.419 16.5964L18.6726 16.6994C18.9326 16.7235 19.1935 16.664 19.4174 16.5297C19.6413 16.3953 19.8165 16.1931 19.9177 15.9524L20.7763 14.0376C20.8782 13.7979 20.9024 13.5323 20.8454 13.2782C20.7884 13.024 20.6531 12.7941 20.4586 12.6209L19.5227 11.7622C19.5613 11.2936 19.5613 10.8227 19.5227 10.3541L20.4758 9.54693L20.4586 9.52976ZM19.9005 8.8686L18.7757 9.8217C18.7234 9.86694 18.6829 9.92414 18.6575 9.98842C18.632 10.0527 18.6225 10.1222 18.6297 10.1909C18.6904 10.7474 18.6904 11.3088 18.6297 11.8653C18.6215 11.9333 18.6297 12.0023 18.6536 12.0666C18.6775 12.1308 18.7164 12.1884 18.7671 12.2345L19.8747 13.2133C19.9355 13.2664 19.9781 13.3372 19.9966 13.4158C20.015 13.4943 20.0085 13.5766 19.9778 13.6513L19.1191 15.566C19.0871 15.6402 19.0326 15.7025 18.9632 15.7441C18.8939 15.7857 18.8133 15.8045 18.7327 15.7979L17.2645 15.6777C17.1951 15.6722 17.1254 15.6834 17.0612 15.7103C16.997 15.7372 16.9401 15.779 16.8952 15.8322C16.5419 16.2671 16.1417 16.6616 15.7017 17.0086C15.6476 17.0512 15.6045 17.1062 15.5761 17.1689C15.5477 17.2317 15.5349 17.3004 15.5386 17.3692L15.6245 18.8375C15.6286 18.9176 15.6076 18.997 15.5646 19.0648C15.5215 19.1325 15.4584 19.1851 15.384 19.2153L13.4607 20.031C13.3852 20.0607 13.3023 20.0659 13.2237 20.0459C13.1451 20.0258 13.0748 19.9816 13.0228 19.9194L12.0697 18.7945C12.0298 18.7466 11.9799 18.708 11.9236 18.6813C11.8672 18.6546 11.8057 18.6405 11.7434 18.64C11.1869 18.7012 10.6255 18.7012 10.069 18.64C10.0009 18.631 9.9317 18.6388 9.86734 18.6628C9.80298 18.6867 9.74546 18.7261 9.6998 18.7774L8.72095 19.885C8.66785 19.9458 8.59707 19.9884 8.51853 20.0068C8.44 20.0253 8.35765 20.0187 8.28304 19.9881L6.36826 19.1294C6.29405 19.0973 6.23177 19.0428 6.19019 18.9735C6.1486 18.9042 6.1298 18.8236 6.13643 18.743L6.25663 17.2747C6.2628 17.2053 6.25195 17.1353 6.22502 17.071C6.19809 17.0067 6.15589 16.9499 6.10208 16.9055C5.65122 16.5625 5.23946 16.1708 4.87422 15.7378C4.83318 15.6819 4.77844 15.6375 4.71528 15.6089C4.65211 15.5804 4.58265 15.5685 4.51359 15.5746L3.0453 15.6605C2.96563 15.6622 2.88723 15.6403 2.81999 15.5975C2.75276 15.5547 2.6997 15.493 2.6675 15.4201L1.89472 13.4881C1.86501 13.4126 1.8598 13.3297 1.87984 13.2511C1.89987 13.1725 1.94413 13.1022 2.00634 13.0502L3.15693 12.0713C3.20918 12.0261 3.24974 11.9689 3.27515 11.9046C3.30057 11.8403 3.31009 11.7709 3.3029 11.7021C3.24225 11.1457 3.24225 10.5842 3.3029 10.0278C3.31009 9.95902 3.30057 9.88956 3.27515 9.82528C3.24974 9.76099 3.20918 9.7038 3.15693 9.65855L2.05786 8.67111C1.99712 8.61801 1.95452 8.54723 1.93604 8.4687C1.91756 8.39017 1.92413 8.30782 1.95482 8.2332L2.81347 6.31842C2.84363 6.25176 2.89171 6.19479 2.95235 6.15385C3.013 6.11291 3.08382 6.08963 3.15693 6.08659L4.62521 6.2068C4.69468 6.21296 4.7646 6.20211 4.82893 6.17518C4.89326 6.14825 4.95007 6.10606 4.99443 6.05224C5.34845 5.61803 5.74864 5.22359 6.18794 4.8759C6.24208 4.83329 6.28516 4.77828 6.31355 4.71551C6.34195 4.65274 6.35482 4.58406 6.35109 4.51527L6.26522 3.04699C6.2611 2.96684 6.28204 2.88741 6.32512 2.8197C6.3682 2.752 6.4313 2.69939 6.50564 2.66918L8.43759 1.8964C8.51306 1.86669 8.59597 1.86149 8.67457 1.88152C8.75316 1.90155 8.82346 1.94581 8.8755 2.00803L9.8286 3.13285C9.87385 3.18511 9.93104 3.22567 9.99532 3.25108C10.0596 3.27649 10.1291 3.28601 10.1978 3.27882C10.7543 3.21818 11.3157 3.21818 11.8722 3.27882C11.9402 3.28705 12.0092 3.27888 12.0735 3.25498C12.1377 3.23108 12.1953 3.19215 12.2414 3.14144L13.2202 2.03379C13.2733 1.97304 13.3441 1.93044 13.4227 1.91197C13.5012 1.89349 13.5835 1.90005 13.6582 1.93075L15.5729 2.78939C15.6471 2.82145 15.7094 2.87598 15.751 2.94529C15.7926 3.01461 15.8114 3.09522 15.8048 3.17578L15.6846 4.64407C15.6784 4.71353 15.6892 4.78346 15.7162 4.84779C15.7431 4.91212 15.7853 4.96892 15.8391 5.01328C16.2738 5.36685 16.6682 5.76709 17.0155 6.2068C17.0559 6.26332 17.1105 6.30816 17.1739 6.33681C17.2372 6.36545 17.3069 6.37688 17.3761 6.36994L18.8444 6.28408C18.9243 6.2812 19.0032 6.30264 19.0706 6.34557C19.1381 6.3885 19.1909 6.45089 19.2222 6.5245L19.995 8.45645C20.021 8.5269 20.0259 8.6034 20.0091 8.67659C19.9923 8.74979 19.9546 8.81651 19.9005 8.8686Z" fill="black" stroke="black" stroke-width="0.5"/>
<path d="M9.33015 17.3323L13.0187 10.9434C13.3764 10.9861 13.7167 10.9641 14.1042 10.8603C15.5254 10.4795 16.3766 9.00513 15.9958 7.58395C15.892 7.19636 15.7408 6.89068 15.5251 6.6023L14.1537 8.97763L12.4336 7.98455L13.805 5.60922C13.4474 5.56657 13.1071 5.58851 12.7195 5.69237C11.2983 6.07317 10.4471 7.54752 10.8279 8.96869C10.9318 9.35628 11.0829 9.66197 11.2987 9.95034L7.61008 16.3392C7.32634 16.8306 7.48212 17.412 7.97357 17.6957C8.46502 17.9795 9.04641 17.8237 9.33015 17.3323ZM11.571 10.7082L12.233 9.56151L12.9702 9.98712L12.3082 11.1338L11.571 10.7082ZM8.07155 16.7694C8.00231 16.511 8.12687 16.2007 8.44987 16.1142C8.70826 16.0449 9.01858 16.1695 9.10513 16.4925C9.19168 16.8155 9.04981 17.0612 8.72681 17.1477C8.40382 17.2343 8.15809 17.0924 8.07155 16.7694Z" fill="black"/>
</svg>
