<svg width="21" height="23" viewBox="0 0 21 23" fill="none" xmlns="http://www.w3.org/2000/svg">
<path d="M16.7708 23C15.8391 23 15.0472 22.6646 14.395 21.9937C13.7428 21.3229 13.4167 20.5083 13.4167 19.55C13.4167 19.4158 13.426 19.2767 13.4446 19.1325C13.4633 18.9884 13.4912 18.8592 13.5285 18.745L5.64618 14.03C5.3294 14.3175 4.97535 14.5429 4.58403 14.7062C4.19271 14.8695 3.78275 14.9508 3.35417 14.95C2.42245 14.95 1.6305 14.6146 0.978299 13.9437C0.3261 13.2729 0 12.4583 0 11.5C0 10.5417 0.3261 9.72708 0.978299 9.05625C1.6305 8.38542 2.42245 8.05 3.35417 8.05C3.78275 8.05 4.19271 8.13165 4.58403 8.29495C4.97535 8.45825 5.3294 8.68327 5.64618 8.97L13.5285 4.255C13.4912 4.14 13.4633 4.01082 13.4446 3.86745C13.426 3.72408 13.4167 3.58493 13.4167 3.45C13.4167 2.49167 13.7428 1.67708 14.395 1.00625C15.0472 0.335417 15.8391 0 16.7708 0C17.7025 0 18.4945 0.335417 19.1467 1.00625C19.7989 1.67708 20.125 2.49167 20.125 3.45C20.125 4.40833 19.7989 5.22292 19.1467 5.89375C18.4945 6.56458 17.7025 6.9 16.7708 6.9C16.3422 6.9 15.9323 6.81873 15.541 6.6562C15.1497 6.49367 14.7956 6.26827 14.4788 5.98L6.59653 10.695C6.6338 10.81 6.66175 10.9396 6.68038 11.0837C6.69902 11.2278 6.70833 11.3666 6.70833 11.5C6.70833 11.6342 6.69902 11.7733 6.68038 11.9174C6.66175 12.0616 6.6338 12.1908 6.59653 12.305L14.4788 17.02C14.7956 16.7325 15.1497 16.5075 15.541 16.3449C15.9323 16.1824 16.3422 16.1008 16.7708 16.1C17.7025 16.1 18.4945 16.4354 19.1467 17.1062C19.7989 17.7771 20.125 18.5917 20.125 19.55C20.125 20.5083 19.7989 21.3229 19.1467 21.9937C18.4945 22.6646 17.7025 23 16.7708 23ZM16.7708 4.6C17.0876 4.6 17.3533 4.4896 17.568 4.2688C17.7827 4.048 17.8896 3.77507 17.8889 3.45C17.8889 3.12417 17.7816 2.85085 17.5669 2.63005C17.3522 2.40925 17.0869 2.29923 16.7708 2.3C16.4541 2.3 16.1883 2.4104 15.9737 2.6312C15.759 2.852 15.652 3.12493 15.6528 3.45C15.6528 3.77583 15.7601 4.04915 15.9748 4.26995C16.1894 4.49075 16.4548 4.60077 16.7708 4.6ZM3.35417 12.65C3.67095 12.65 3.93667 12.5396 4.15134 12.3188C4.36601 12.098 4.47297 11.8251 4.47222 11.5C4.47222 11.1742 4.36489 10.9008 4.15022 10.68C3.93556 10.4592 3.6702 10.3492 3.35417 10.35C3.03738 10.35 2.77166 10.4604 2.55699 10.6812C2.34233 10.902 2.23537 11.1749 2.23611 11.5C2.23611 11.8258 2.34344 12.0991 2.55811 12.32C2.77278 12.5408 3.03813 12.6508 3.35417 12.65ZM16.7708 20.7C17.0876 20.7 17.3533 20.5896 17.568 20.3688C17.7827 20.148 17.8896 19.8751 17.8889 19.55C17.8889 19.2242 17.7816 18.9508 17.5669 18.7301C17.3522 18.5093 17.0869 18.3992 16.7708 18.4C16.4541 18.4 16.1883 18.5104 15.9737 18.7312C15.759 18.952 15.652 19.2249 15.6528 19.55C15.6528 19.8758 15.7601 20.1491 15.9748 20.3699C16.1894 20.5907 16.4548 20.7008 16.7708 20.7Z" fill="#7E7E7E"/>
</svg>
