<svg width="20" height="20" viewBox="0 0 20 20" fill="none" xmlns="http://www.w3.org/2000/svg">
<g clip-path="url(#clip0_12_54)">
<path d="M9.99966 0.705627C4.49247 0.705627 0.0124512 5.18625 0.0124512 10.6934C0.0124512 14.1534 1.76401 17.3181 4.69806 19.1584C4.98993 19.3434 5.37556 19.2538 5.55933 18.9613C5.7431 18.6688 5.65464 18.2831 5.36214 18.1C4.30558 17.4369 3.42776 16.5756 2.7562 15.5828L3.41151 15.2044C3.71056 15.0316 3.81308 14.6497 3.64026 14.3507C3.46683 14.051 3.08433 13.9491 2.78651 14.1219L2.13026 14.5006C1.6537 13.5141 1.36274 12.4344 1.28493 11.3088H1.98056C2.32587 11.3088 2.60556 11.0291 2.60556 10.6838C2.60556 10.3385 2.32587 10.0588 1.98056 10.0588H1.28806C1.37087 8.91254 1.67431 7.82627 2.15837 6.84408L2.78649 7.20658C2.88124 7.26157 2.98886 7.29046 3.09841 7.29033C3.31433 7.29033 3.52433 7.17815 3.64026 6.97783C3.81306 6.67877 3.71058 6.29658 3.41151 6.12407L2.78964 5.76532C3.41683 4.85063 4.21276 4.06031 5.13308 3.44065L5.48495 4.05002C5.60087 4.25096 5.81087 4.36252 6.02681 4.36252C6.13634 4.36264 6.24396 4.33375 6.3387 4.27877C6.63774 4.10596 6.74026 3.72408 6.56745 3.42502L6.21681 2.81815C7.18026 2.35346 8.24181 2.06315 9.36087 1.9819V2.76065C9.36087 3.10596 9.64056 3.38565 9.98587 3.38565C10.3312 3.38565 10.6109 3.10596 10.6109 2.76065V1.9794C11.7552 2.05908 12.8399 2.35813 13.8215 2.8378L13.4824 3.42469C13.3096 3.72373 13.4121 4.10594 13.7112 4.27844C13.8059 4.33342 13.9135 4.36231 14.0231 4.36219C14.239 4.36219 14.449 4.25063 14.5649 4.04969L14.9024 3.465C15.8149 4.08629 16.6025 4.87348 17.2243 5.78563L16.639 6.12375C16.34 6.29655 16.2374 6.67844 16.4103 6.97746C16.5262 7.17842 16.7362 7.28996 16.9521 7.28996C17.0584 7.28996 17.1659 7.26311 17.264 7.20623L17.8524 6.86655C18.3327 7.84842 18.6328 8.9334 18.7127 10.0781H18.0265C17.6812 10.0781 17.4015 10.3578 17.4015 10.7031C17.4015 11.0484 17.6812 11.3281 18.0265 11.3281H18.7125C18.6334 12.4391 18.3493 13.5047 17.8825 14.4788L17.2637 14.1216C16.9653 13.9488 16.5818 14.0519 16.41 14.3503C16.2372 14.6494 16.3397 15.0316 16.6387 15.2041L17.2593 15.5625C16.5737 16.5828 15.6687 17.4647 14.5766 18.1372C14.2825 18.3184 14.1916 18.7038 14.3722 18.9972C14.4906 19.1888 14.695 19.2944 14.905 19.2944C15.0206 19.2944 15.1338 19.2623 15.2322 19.2016C18.21 17.3675 19.9875 14.1863 19.9875 10.6931C19.9875 5.18625 15.5069 0.705627 9.9997 0.705627H9.99966ZM14.6115 8.74469C14.9103 8.57188 15.0128 8.19004 14.8403 7.89098C14.6678 7.59223 14.2853 7.48973 13.9865 7.66254L10.5915 9.62254C10.4103 9.52004 10.2037 9.4566 9.98057 9.4566C9.29151 9.4566 8.7337 10.015 8.7337 10.7028C8.7337 11.3913 9.29183 11.9497 9.98057 11.9497C10.6696 11.9497 11.2275 11.3913 11.2275 10.7028C11.2275 10.7016 11.2271 10.7 11.2271 10.6988L14.6115 8.74469Z" fill="black"/>
</g>
<defs>
<clipPath id="clip0_12_54">
<rect width="20" height="20" fill="white"/>
</clipPath>
</defs>
</svg>
