<svg width="23" height="24" viewBox="0 0 23 24" fill="none" xmlns="http://www.w3.org/2000/svg">
<path d="M11.125 1.15262e-06C6.015 1.15262e-06 1.742 3.16 0 7.625L1.844 8.375C3.301 4.64 6.835 2 11.125 2C14.365 2 17.259 3.59 19.063 6H15.125V8H22.125V1H20.125V4.094C19.0048 2.8078 17.6217 1.7768 16.0692 1.07055C14.5166 0.364311 12.8306 -0.000748629 11.125 1.15262e-06ZM20.405 15.625C18.949 19.36 15.415 22 11.125 22C7.849 22 4.968 20.388 3.155 18H7.125V16H0.125V23H2.125V19.906C4.315 22.386 7.52 24 11.125 24C16.235 24 20.508 20.84 22.25 16.375L20.405 15.625Z" fill="#008540"/>
</svg>
