<svg width="22" height="22" viewBox="0 0 22 22" fill="none" xmlns="http://www.w3.org/2000/svg">
<path d="M11 20.625C9.09636 20.625 7.23546 20.0605 5.65264 19.0029C4.06982 17.9453 2.83616 16.4421 2.10766 14.6833C1.37917 12.9246 1.18856 10.9893 1.55995 9.12226C1.93133 7.25519 2.84802 5.54018 4.1941 4.1941C5.54018 2.84802 7.25519 1.93133 9.12226 1.55995C10.9893 1.18856 12.9246 1.37917 14.6833 2.10766C16.4421 2.83616 17.9453 4.06982 19.0029 5.65264C20.0605 7.23546 20.625 9.09636 20.625 11C20.625 13.5527 19.6109 16.0009 17.8059 17.8059C16.0009 19.6109 13.5527 20.625 11 20.625ZM11 2.75C9.36831 2.75 7.77326 3.23386 6.41655 4.14038C5.05984 5.0469 4.00242 6.33538 3.378 7.84287C2.75358 9.35036 2.5902 11.0092 2.90853 12.6095C3.22685 14.2098 4.01259 15.6799 5.16637 16.8336C6.32016 17.9874 7.79017 18.7732 9.39051 19.0915C10.9909 19.4098 12.6497 19.2464 14.1571 18.622C15.6646 17.9976 16.9531 16.9402 17.8596 15.5835C18.7661 14.2268 19.25 12.6317 19.25 11C19.25 8.81197 18.3808 6.71355 16.8336 5.16637C15.2865 3.6192 13.188 2.75 11 2.75Z" fill="#929292"/>
<path d="M14.1556 15.125L10.3125 11.2819V4.8125H11.6875V10.7112L15.125 14.1556L14.1556 15.125Z" fill="#929292"/>
</svg>
