<svg width="22" height="22" viewBox="0 0 22 22" fill="none" xmlns="http://www.w3.org/2000/svg">
<path fill-rule="evenodd" clip-rule="evenodd" d="M16.3726 2.89941L16.5192 2.94891L17.6211 3.31558C18.0455 3.45766 18.4186 3.58141 18.7128 3.71891C19.0318 3.86741 19.3243 4.05808 19.5479 4.36883C19.7716 4.67866 19.8605 5.01691 19.9008 5.36616C19.9375 5.68975 19.9375 6.08208 19.9375 6.53033V14.058C19.9375 14.6978 19.9375 15.2377 19.888 15.6649C19.8367 16.1086 19.7212 16.5467 19.3976 16.9006C19.206 17.1103 18.9732 17.2782 18.7138 17.3937C18.2756 17.5881 17.8237 17.5587 17.3864 17.468C16.9647 17.38 16.4533 17.2095 15.8464 17.0069L15.807 16.9941C14.7803 16.6512 14.4274 16.5449 14.0864 16.5568C13.9502 16.5615 13.8148 16.5796 13.6822 16.6109C13.3494 16.6888 13.0378 16.885 12.1367 17.4854L10.8698 18.3306L10.7415 18.4158C9.768 19.0657 9.0915 19.5167 8.2995 19.6231C7.50842 19.7294 6.73658 19.4718 5.62742 19.1006L5.48075 19.052L4.37892 18.6853C3.9545 18.5432 3.58142 18.4195 3.28717 18.282C2.96817 18.1335 2.67575 17.9428 2.45208 17.6312C2.22842 17.3213 2.1395 16.984 2.09917 16.6338C2.0625 16.3102 2.0625 15.9188 2.0625 15.4706V7.94291C2.0625 7.30217 2.0625 6.76225 2.112 6.336C2.16333 5.89233 2.27883 5.45416 2.60242 5.10033C2.79397 4.89061 3.02678 4.72271 3.28625 4.60716C3.72442 4.41191 4.17725 4.44125 4.61358 4.53291C5.03525 4.62 5.54675 4.79141 6.15358 4.994L6.193 5.00683C7.21967 5.34875 7.57258 5.456 7.9145 5.44408C8.0504 5.43939 8.1855 5.42128 8.31783 5.39C8.65058 5.31116 8.96225 5.115 9.86333 4.5155L11.1302 3.67033L11.2585 3.58416C12.232 2.93516 12.9085 2.48416 13.6996 2.37783C14.4916 2.2715 15.2634 2.52816 16.3726 2.89941ZM14.4375 3.76383V15.1983C14.9288 15.2515 15.4458 15.4238 16.1269 15.6512L16.2415 15.6897C16.8988 15.9087 17.3342 16.0527 17.6669 16.1223C17.9933 16.1902 18.1042 16.159 18.1546 16.137C18.2412 16.0986 18.3189 16.0427 18.3828 15.9729C18.4195 15.9326 18.4837 15.8363 18.5222 15.5054C18.5616 15.1681 18.5625 14.7088 18.5625 14.0167V6.56608C18.5625 6.07108 18.5616 5.75941 18.535 5.52291C18.5093 5.30383 18.469 5.22225 18.4323 5.17275C18.3966 5.12325 18.3324 5.05816 18.1335 4.96558C17.9172 4.86475 17.6202 4.76575 17.1527 4.609L16.0848 4.25333C15.2717 3.982 14.7895 3.828 14.4375 3.76383ZM13.0625 15.3633V4.0645C12.7774 4.2295 12.4117 4.46875 11.8928 4.81433L10.626 5.6595L10.5252 5.72642C9.8945 6.14808 9.42425 6.46158 8.9375 6.63758V17.9364C9.22258 17.7714 9.58833 17.5312 10.1072 17.1857L11.374 16.3414L11.4748 16.2745C12.1055 15.8528 12.5758 15.5393 13.0625 15.3633ZM7.5625 18.2371V6.80167C7.07117 6.7485 6.55417 6.57617 5.87308 6.34883L5.7585 6.31033C5.10125 6.09125 4.66583 5.94733 4.33217 5.87767C4.00675 5.80983 3.89583 5.84008 3.84633 5.86208C3.75935 5.90063 3.68132 5.95682 3.61717 6.02708C3.5805 6.0665 3.51633 6.16275 3.47783 6.49367C3.43842 6.831 3.4375 7.29116 3.4375 7.98325V15.4339C3.4375 15.9289 3.43842 16.2406 3.465 16.4771C3.49067 16.6962 3.531 16.7768 3.56767 16.8272C3.60342 16.8767 3.66758 16.9418 3.8665 17.0344C4.08283 17.1352 4.37983 17.2342 4.84733 17.391L5.91525 17.7467C6.72833 18.0171 7.20958 18.1711 7.5625 18.2362V18.2371Z" fill="#008540"/>
</svg>
