<svg width="28" height="30" viewBox="0 0 28 30" fill="none" xmlns="http://www.w3.org/2000/svg">
<path d="M25.5648 8.87322H23.0399C22.1433 8.87322 21.4165 9.63001 21.4165 10.5633V12.3271L19.778 1.19504C19.6768 0.507767 19.1085 0 18.4406 0H8.74679C8.07891 0 7.51092 0.507662 7.40975 1.19504L5.7709 12.3271V10.5633C5.7709 9.63003 5.04442 8.87322 4.14779 8.87322H1.62339C0.726785 8.87322 0 9.63001 0 10.5633V28.3099C0 29.2432 0.726785 30 1.62339 30H4.14804C5.04465 30 5.77115 29.2432 5.77115 28.3099L5.77106 24.8823L6.85312 26.0093H20.334L21.4161 24.8823V28.3096C21.4161 29.2429 22.1429 29.9997 23.0395 29.9997H25.5644C26.4607 29.9997 27.1875 29.2429 27.1875 28.3096V10.5633C27.1878 9.63003 26.4611 8.87322 25.5648 8.87322ZM5.59086 19.5772C4.69456 19.5772 3.96775 18.8207 3.96775 17.8871C3.96775 16.9538 4.69453 16.197 5.59086 16.197C6.48747 16.197 7.21425 16.9537 7.21425 17.8871C7.21425 18.8207 6.48747 19.5772 5.59086 19.5772ZM17.4267 22.8168H9.76136V22.0654H17.4264L17.4267 22.8168ZM17.4267 21.1267H9.76136V20.3752H17.4264L17.4267 21.1267ZM17.4267 19.4366H9.76136V18.6851H17.4264L17.4267 19.4366ZM17.4267 17.7465H9.76136V16.995H17.4264L17.4267 17.7465ZM7.48366 13.7089L9.21159 1.97191H17.9765L19.7044 13.7089H7.48366ZM21.5969 19.5772C20.7006 19.5772 19.9738 18.8207 19.9738 17.887C19.9738 16.9537 20.7006 16.1969 21.5969 16.1969C22.4935 16.1969 23.2201 16.9537 23.2201 17.887C23.2201 18.8207 22.4936 19.5772 21.5969 19.5772Z" fill="white"/>
</svg>
