<svg width="27" height="26" viewBox="0 0 27 26" fill="none" xmlns="http://www.w3.org/2000/svg">
<g clip-path="url(#clip0_301_21)">
<path d="M14.1678 17.2933L18.172 13L14.1678 8.70667C14.1317 8.65601 14.0857 8.61424 14.0331 8.58417C13.9805 8.5541 13.9224 8.53644 13.8629 8.53239C13.8033 8.52833 13.7436 8.53798 13.6878 8.56067C13.6321 8.58336 13.5815 8.61857 13.5396 8.66391C13.4977 8.70926 13.4654 8.76367 13.4449 8.82348C13.4245 8.88329 13.4163 8.94709 13.4209 9.01056C13.4256 9.07404 13.443 9.13571 13.4719 9.1914C13.5008 9.24708 13.5407 9.29549 13.5887 9.33333L16.5845 12.5556L8.61366 12.5556C8.50316 12.5556 8.39718 12.6024 8.31904 12.6857C8.2409 12.7691 8.197 12.8821 8.197 13C8.197 13.1179 8.2409 13.2309 8.31904 13.3143C8.39718 13.3976 8.50316 13.4444 8.61366 13.4444L16.5845 13.4444L13.5887 16.6667C13.5108 16.7504 13.4672 16.8636 13.4676 16.9816C13.468 17.0995 13.5123 17.2125 13.5907 17.2956C13.6692 17.3787 13.7754 17.4251 13.886 17.4247C13.9965 17.4243 14.1024 17.377 14.1803 17.2933L14.1678 17.2933Z" fill="#008540"/>
</g>
<circle cx="13.672" cy="13" r="12.5" fill="#008540" fill-opacity="0.05" stroke="#008540"/>
<defs>
<clipPath id="clip0_301_21">
<rect width="16" height="15" fill="white" transform="translate(20.672 5) rotate(90)"/>
</clipPath>
</defs>
</svg>
