<svg width="18" height="20" viewBox="0 0 18 20" fill="none" xmlns="http://www.w3.org/2000/svg">
<path d="M17.75 7.8125C17.75 5.44344 16.8959 3.18875 15.3394 1.41937L15.3794 1.37937C15.6234 1.13531 15.6234 0.739688 15.3794 0.495625C15.1353 0.251562 14.7394 0.251562 14.4956 0.495625L12.9022 2.08938C11.5947 0.982187 9.90563 0.3125 8.0625 0.3125C3.92687 0.3125 0.5625 3.67719 0.5625 7.8125C0.5625 7.97531 0.569687 8.13625 0.579687 8.29656C0.569375 8.34219 0.5625 8.38875 0.5625 8.4375C0.5625 8.52656 0.581563 8.61062 0.615313 8.6875C0.790625 10.1884 1.41 11.5547 2.33938 12.6522L0.745625 14.2459C0.501562 14.49 0.501562 14.8856 0.745625 15.1297C0.8675 15.2516 1.0275 15.3125 1.1875 15.3125C1.3475 15.3125 1.5075 15.2516 1.62937 15.1294L1.66937 15.0894C2.81187 16.0944 4.15656 16.805 5.60406 17.1831L4.8875 18.4375H4.625C4.28 18.4375 4 18.7175 4 19.0625C4 19.4075 4.28 19.6875 4.625 19.6875H11.5C11.845 19.6875 12.125 19.4075 12.125 19.0625C12.125 18.7175 11.845 18.4375 11.5 18.4375H11.2375L10.5206 17.1831C14.6756 16.0922 17.75 12.305 17.75 7.8125ZM10.1788 1.93906L9.94625 3.33469C9.91625 3.51406 9.96594 3.69781 10.0825 3.8375L11.1306 5.09562C11.2841 5.27969 11.3138 5.53688 11.2066 5.75156L10.6284 6.90781C10.6081 6.94875 10.5922 6.99156 10.5813 7.03562L10.1888 8.60531C10.1216 8.87438 9.88062 9.0625 9.60344 9.0625C9.27063 9.0625 9 8.79187 9 8.45906V7.5C9 7.27563 8.87969 7.06844 8.685 6.9575L7.11656 6.06125C6.92906 5.95406 6.8125 5.75313 6.8125 5.53719V4.0625C6.8125 3.91625 6.76125 3.77469 6.66781 3.6625L5.415 2.15937C6.22031 1.78031 7.11531 1.5625 8.0625 1.5625C8.80625 1.5625 9.51656 1.69969 10.1788 1.93906ZM4.33063 2.81063L5.5625 4.28875V5.53719C5.5625 6.20031 5.92031 6.81719 6.49625 7.14625L7.75 7.86281V8.45906C7.75 9.48125 8.58156 10.3125 9.60344 10.3125C10.4556 10.3125 11.195 9.735 11.4016 8.90875L11.7775 7.40562L12.325 6.31063C12.6544 5.65188 12.5625 4.86062 12.0909 4.29531L11.2262 3.2575L11.3512 2.50781C13.1253 3.61156 14.3125 5.57344 14.3125 7.8125C14.3125 11.2587 11.5087 14.0625 8.0625 14.0625C7.81 14.0625 7.5625 14.0431 7.31781 14.0138L7.6175 13.2644C7.70531 13.0444 7.75 12.8128 7.75 12.5759V11.8525C7.75 11.5663 7.6825 11.2797 7.55438 11.0238L7.08594 10.0872C6.77 9.455 6.135 9.0625 5.42844 9.0625H4.9375L4.55594 8.55375C4.20781 8.08969 3.65344 7.8125 3.07344 7.8125H1.8125C1.8125 5.76594 2.80594 3.95156 4.33063 2.81063ZM1.93844 9.0625H3.07344C3.26219 9.0625 3.44281 9.15281 3.55594 9.30375L4.125 10.0625C4.24312 10.2197 4.42844 10.3125 4.625 10.3125H5.42844C5.65844 10.3125 5.865 10.4403 5.96813 10.6459L6.43656 11.5825C6.47813 11.6659 6.5 11.7594 6.5 11.8525V12.5759C6.5 12.6531 6.48562 12.7284 6.45687 12.8L6.0825 13.7356C3.99 13.0344 2.38594 11.2581 1.93844 9.0625ZM3.22312 13.5356C4.53031 14.6428 6.21938 15.3125 8.0625 15.3125C12.1981 15.3125 15.5625 11.9478 15.5625 7.8125C15.5625 5.96938 14.8928 4.28031 13.7859 2.97312L14.4544 2.30469C15.7762 3.83625 16.5 5.77594 16.5 7.8125C16.5 12.465 12.715 16.25 8.0625 16.25C6.02594 16.25 4.08625 15.5262 2.55469 14.2041L3.22312 13.5356ZM9.26219 17.5L9.79781 18.4375H6.32687L6.8625 17.5H9.26219Z" fill="black"/>
</svg>
